<svg width="115" height="115" viewBox="0 0 115 115" fill="none" xmlns="http://www.w3.org/2000/svg">
<g filter="url(#filter0_in_747_27849)">
<g clip-path="url(#clip0_747_27849)">
<rect x="0.5" y="0.5" width="114" height="114" rx="21" fill="black"/>
<path d="M43.0007 34.8142C43.4522 35.0172 43.8758 35.3497 44.1803 35.7942C44.9048 36.8408 45.3984 40.0891 45.3319 41.3597C45.3214 41.5662 44.9398 41.7167 45.3319 41.8042C45.1114 43.0293 45.0554 44.2264 44.8558 45.469C44.3728 48.5002 43.4312 51.4474 42.6332 54.3806C41.9576 56.8588 40.8095 59.8515 42.7627 62.1267C43.0252 62.4347 43.5257 62.6273 43.6588 62.7778C44.2468 63.4323 44.9994 63.7578 45.7729 64.2024C51.1213 67.2931 56.0812 67.0761 61.8846 65.0774C62.7107 64.7939 64.9579 63.9294 65.6159 63.4918C65.8644 63.3273 66.575 62.6343 66.8445 62.3962C67.016 62.2457 68.2796 61.0731 68.3286 60.9821C68.3881 60.8736 68.3146 60.6846 68.3951 60.5411C68.4511 60.4466 68.7346 60.3556 68.8536 60.1701C68.9727 59.9846 68.9727 59.6905 69.0147 59.6415C69.0427 59.61 69.2142 59.6135 69.3507 59.4735C69.9842 58.8365 70.6633 56.8028 71.0553 55.9277C71.7519 54.3631 72.4274 52.998 72.8474 51.2829C73.537 48.4722 73.4005 45.784 72.6444 43.0223C72.5954 42.8473 71.9864 42.4307 72.5779 42.2242V42.1367C72.4974 42.1367 72.4134 42.0947 72.3574 42.0352C71.8919 41.5347 71.4018 39.193 71.4788 38.5034C71.4928 38.3879 71.6049 38.3004 71.6329 38.1954C71.6574 38.0974 71.5909 37.9854 71.6224 37.8979C71.9024 37.1278 73.565 36.9283 74.2791 36.8828C76.8692 36.7253 80.282 37.2258 82.3262 38.8745C82.5817 39.081 82.8162 39.4695 82.9842 39.5955C83.1522 39.7215 83.5828 39.7635 83.7228 39.963C83.8243 40.1101 83.7858 40.3376 83.8173 40.3726C83.8523 40.4111 84.5138 40.4986 84.7763 40.7506C84.9724 40.9396 84.9444 41.1566 85.0564 41.3001C85.1229 41.3877 85.7949 41.8427 86.0189 42.0877C86.593 42.7143 87.6536 44.1599 88.0386 44.8774C88.2416 45.2589 88.3746 45.9835 88.5636 46.2775C88.6476 46.4105 89.0187 46.61 89.0992 46.7361C89.2322 46.9356 89.1937 47.1596 89.2637 47.2646C89.3057 47.3311 89.4912 47.3416 89.5612 47.4711C89.6942 47.7196 89.6487 48.2132 89.8552 48.5527C90.3628 49.3928 90.4748 49.5258 90.8703 50.4883C92.9565 55.5742 94.087 61.4827 94.6646 67.0446C94.7626 67.9897 94.7276 69.3058 94.9026 70.2473C94.9306 70.3908 95.1056 70.5063 95.0986 70.6149C95.0986 70.6744 94.9551 70.7969 94.9376 70.9824C94.9026 71.3814 95.0846 72.057 95.1056 72.477C95.3331 77.3739 94.8816 82.5053 94.3321 87.3776C94.2796 87.8292 94.3181 88.3997 94.2411 88.8687C94.136 89.5128 94.0905 90.1988 93.9995 90.9304C93.4675 95.2917 92.5119 101.074 93.6075 105.456C93.7685 106.097 93.849 106.006 93.87 106.692C93.87 106.759 94.1045 106.934 94.1675 107.105C94.2095 107.221 94.157 107.392 94.192 107.529C94.4546 108.488 94.9971 109.223 95.2631 110.147C95.5641 111.193 96.7402 112.369 97.2058 113.371C97.2723 113.511 97.1673 113.658 97.2058 113.738C97.2443 113.826 98.4064 114.865 98.5464 115.086C98.6864 115.306 98.4554 115.208 98.7669 115.572C99.2569 116.143 99.7575 116.636 100.23 117.238C100.296 117.322 100.269 117.501 100.381 117.641C100.699 118.04 101.504 118.4 101.809 118.789C101.956 118.978 102.026 119.293 102.18 119.433C102.313 119.552 102.684 119.71 102.932 119.895C104.182 120.823 105.302 121.943 106.457 122.884C107.392 123.644 109.194 124.498 109.544 125.695C109.723 126.308 108.564 126.444 108.141 126.511C106.397 126.787 103.926 126.346 102.239 125.811C100.689 125.317 99.8485 124.375 98.5289 123.539C98.0318 123.224 97.5978 122.825 97.0868 122.471C96.4497 122.027 95.5746 121.516 95.0111 121.008C94.9096 120.917 94.9551 120.756 94.8046 120.641C94.5771 120.466 94.3216 120.662 94.5841 120.084C94.0065 119.92 93.4955 119.759 93.1665 119.244C92.7184 118.544 92.5049 118.495 91.9834 117.966C91.2728 117.249 90.6883 116.328 90.1702 115.52C89.8762 115.061 89.6102 114.613 89.3337 114.242C88.6756 113.36 88.1296 112.205 87.5906 111.2C83.0262 102.684 86.1414 92.607 87.02 83.4958C87.9861 73.4501 87.6466 63.0263 84.7938 53.2675C84.6118 52.6375 84.4578 51.99 84.3003 51.4439C84.0833 50.6809 83.4217 49.7813 83.2047 48.9622C83.1767 48.8502 83.2852 48.6997 83.2047 48.4967C83.1592 48.3812 82.8127 48.2027 82.6727 47.9121C82.6062 47.7721 82.6377 47.6006 82.5712 47.4606C81.9621 46.211 81.2166 44.9019 80.3765 43.7153C80.2855 43.5858 79.9145 43.3513 79.8515 43.2463C79.6835 42.9663 79.981 43.1658 79.5329 42.6757C79.4314 42.5672 78.7384 41.6677 78.6649 41.7482C78.6264 41.9477 78.8609 42.0317 78.8924 42.1962C79.0044 42.7283 79.0359 42.8333 79.2039 43.3618C80.7125 48.0557 79.2109 53.0295 77.4223 57.2123C77.0163 58.1644 76.4947 59.3055 75.9032 60.1176C75.5637 60.5831 75.2486 61.1221 74.8006 61.5877C74.5731 61.8257 74.02 62.1547 73.8695 62.4102C73.7995 62.5292 73.88 62.6518 73.831 62.7288C73.7575 62.8443 71.9094 64.4929 71.7799 64.5454C70.7228 64.9759 69.6727 65.6655 68.5386 66.089C59.8825 69.3408 48.5661 69.7153 40.316 65.1404C40.057 64.9969 38.5589 64.0939 38.4434 63.9714C38.3594 63.8803 38.3769 63.7123 38.3314 63.6738C38.2788 63.6283 37.8133 63.5688 37.6488 63.4358C35.5031 61.7312 35.3106 59.302 35.8007 56.7258C36.2347 54.4506 37.2008 52.228 37.8308 50.0298C38.5239 47.6216 39.1854 45.0769 39.4514 42.6337C39.4584 42.5707 39.6229 42.5847 39.6405 42.5147C39.8925 41.4682 39.9695 37.7824 39.707 36.7568C39.6755 36.6308 39.3639 35.8607 39.3149 35.8537C39.0349 36.0112 37.6873 36.2038 37.6348 36.4628L37.7048 36.7638C37.3233 37.0823 36.8157 37.0368 36.4202 37.1873C35.6432 37.4814 33.7845 40.4426 33.235 41.2756C31.7264 43.5718 30.5713 45.7945 29.4722 48.3742C28.9682 49.5573 28.3906 50.8244 27.9986 52.0565C25.8494 58.812 26.0559 67.1041 26.2519 74.2341C26.35 77.8184 26.5355 81.4447 26.0139 85.1374C25.9299 85.7325 25.1529 90.2058 24.9849 90.4193C24.4283 91.1334 23.3327 95.3197 22.8182 96.6638C21.9781 98.8515 21.0996 101.071 19.822 103.146C19.3179 103.965 18.6354 105.341 18.0718 105.996C17.2738 106.923 16.6402 107.924 15.8702 108.901C15.2366 109.706 14.4771 110.406 13.784 111.19C13.1575 111.897 12.6569 112.776 11.8484 113.392C11.7084 113.5 11.3793 113.581 11.3233 113.651C11.2463 113.745 11.2883 113.966 11.1833 114.064C10.4063 114.809 8.04708 114.571 7.06701 114.319C6.40546 114.148 4.86534 113.829 5.87692 113.035C6.52447 112.531 7.11251 111.816 7.66555 111.144C8.74014 109.842 9.6642 108.502 10.5743 107.151C10.9943 106.528 11.4703 106.055 11.9009 105.351C12.4049 104.532 13.0245 103.759 13.406 102.971C17.0463 95.5157 20.0775 86.7861 20.032 78.2384C20.0285 77.5034 19.808 76.3483 19.8605 75.6552C19.871 75.5152 20.039 75.4207 20.0215 75.3122C19.724 73.4816 19.8255 71.4129 19.8535 69.4913C19.9095 65.7775 20.025 62.0357 20.704 58.3884C21.7156 52.956 23.7843 48.3777 26.7175 43.7783C28.1981 41.4542 30.9668 37.6914 33.3505 36.1478C35.8322 34.5376 40.2425 33.5576 43.0042 34.7897L43.0007 34.8142Z" fill="#FEF1F1"/>
<path d="M48.6216 73.9212C49.6437 75.2898 50.5643 77.7189 50.5573 79.5006C50.5573 79.7036 50.4522 79.8226 50.4032 80.0081L50.6693 80.1586C50.5083 80.5647 50.5993 81.0477 50.5608 81.4572C50.4662 82.4373 50.2072 83.6624 49.7662 84.5269C47.9426 88.0867 44.7853 88.8638 40.8195 88.2232C37.8198 87.7367 32.8809 85.5105 33.4025 81.7897C33.658 79.9661 35.4991 75.8568 36.9797 74.7752C39.7624 72.7416 45.6534 74.7682 46.2414 78.286C46.623 80.5542 44.4948 84.0964 42.0656 84.2784C40.0705 84.4289 37.4628 82.6123 37.8408 80.4211C38.0543 79.1786 39.6224 77.3269 40.9595 78.139C41.6036 78.531 41.2501 79.21 40.613 79.1365C40.2385 79.0945 40.312 78.769 39.9165 79.1855C39.1569 79.9871 39.2304 81.3382 39.8219 82.2203C40.088 82.6158 41.1906 83.5399 41.6631 83.4244C42.4751 83.2248 43.4587 81.7792 43.7982 81.0407C44.2638 80.0186 44.4913 78.6325 44.0153 77.5719C44.0013 77.5404 43.7072 77.0749 43.6652 77.0119C42.7412 75.6678 40.417 74.2152 38.8594 75.3633C37.8058 76.1403 36.4407 79.056 36.0137 80.3266C35.8316 80.8657 35.5726 81.9823 35.6041 82.6683C35.7091 84.9435 38.6459 86.6271 40.634 87.1171C42.6222 87.6072 44.1028 87.5512 45.6219 85.9866C45.7374 85.8675 45.7794 85.8325 45.9054 85.703C46.4794 85.115 47.1935 83.3929 47.2705 82.5773C47.4525 80.6522 47.386 78.6465 46.77 76.7459C46.4339 75.7063 45.5519 74.1102 44.7503 73.3366C44.6313 73.2211 43.6617 72.409 43.5917 72.3775C43.2977 72.234 41.8206 72.2095 41.8626 71.744C41.9466 70.8164 44.5368 71.2155 45.1423 71.38C45.4784 71.471 45.9474 71.667 46.2554 71.8315C46.8295 72.136 48.2366 73.4031 48.6251 73.9247L48.6216 73.9212Z" fill="#FEF1F1"/>
<path d="M68.6725 75.4914C71.6863 78.4527 72.1028 84.9457 67.605 86.7273C63.1386 88.4949 58.1753 86.0132 57.3667 81.2354C56.5196 76.2335 61.945 74.3959 65.7953 76.5765C67.612 77.6056 68.8721 80.6683 67.2759 82.3485C66.0614 83.6261 62.8691 84.0286 61.49 82.8175C60.8215 82.2295 60.3104 80.9519 60.6989 80.1013C60.958 79.5307 62.1551 79.5692 62.6311 79.8353C63.0756 80.0838 62.7606 80.3043 62.7431 80.6683C62.7221 81.1339 63.2996 82.4465 63.7862 82.5025C64.1012 82.5375 64.9693 82.0754 65.1723 81.8094C65.8093 80.9764 65.6763 79.6813 65.3788 78.7397C64.2342 75.1169 59.1028 76.349 59.1308 80.3778C59.1518 83.1815 61.854 86.7763 64.9588 86.3843C69.8311 85.7682 70.2092 79.2822 67.5595 76.097C66.2854 74.5674 64.3077 73.9618 62.5856 73.0623C62.1201 74.0948 60.0514 72.5302 61.5985 72.2537C62.6556 72.0647 65.8968 73.6643 66.9294 74.2419C67.5385 74.5814 68.172 75.0049 68.6691 75.4949L68.6725 75.4914Z" fill="#FEF1F1"/>
</g>
<rect x="0.5" y="0.5" width="114" height="114" rx="21" stroke="#2A2A2A"/>
</g>
<defs>
<filter id="filter0_in_747_27849" x="0" y="0" width="115" height="119" filterUnits="userSpaceOnUse" color-interpolation-filters="sRGB">
<feFlood flood-opacity="0" result="BackgroundImageFix"/>
<feBlend mode="normal" in="SourceGraphic" in2="BackgroundImageFix" result="shape"/>
<feColorMatrix in="SourceAlpha" type="matrix" values="0 0 0 0 0 0 0 0 0 0 0 0 0 0 0 0 0 0 127 0" result="hardAlpha"/>
<feOffset dy="4"/>
<feGaussianBlur stdDeviation="5.85"/>
<feComposite in2="hardAlpha" operator="arithmetic" k2="-1" k3="1"/>
<feColorMatrix type="matrix" values="0 0 0 0 1 0 0 0 0 1 0 0 0 0 1 0 0 0 0.17 0"/>
<feBlend mode="normal" in2="shape" result="effect1_innerShadow_747_27849"/>
<feTurbulence type="fractalNoise" baseFrequency="1.4285714626312256 1.4285714626312256" stitchTiles="stitch" numOctaves="3" result="noise" seed="5618" />
<feColorMatrix in="noise" type="luminanceToAlpha" result="alphaNoise" />
<feComponentTransfer in="alphaNoise" result="coloredNoise1">
<feFuncA type="discrete" tableValues="1 1 1 1 1 1 1 1 1 1 1 1 1 1 1 1 1 1 1 1 1 1 1 1 1 1 1 1 1 1 1 1 1 1 1 1 1 1 1 1 1 1 1 1 1 1 1 1 1 1 1 0 0 0 0 0 0 0 0 0 0 0 0 0 0 0 0 0 0 0 0 0 0 0 0 0 0 0 0 0 0 0 0 0 0 0 0 0 0 0 0 0 0 0 0 0 0 0 0 0 "/>
</feComponentTransfer>
<feComposite operator="in" in2="effect1_innerShadow_747_27849" in="coloredNoise1" result="noise1Clipped" />
<feFlood flood-color="rgba(174, 174, 174, 0.21)" result="color1Flood" />
<feComposite operator="in" in2="noise1Clipped" in="color1Flood" result="color1" />
<feMerge result="effect2_noise_747_27849">
<feMergeNode in="effect1_innerShadow_747_27849" />
<feMergeNode in="color1" />
</feMerge>
</filter>
<clipPath id="clip0_747_27849">
<rect x="0.5" y="0.5" width="114" height="114" rx="21" fill="white"/>
</clipPath>
</defs>
</svg>
