<svg width="100" height="100" viewBox="0 0 100 100" fill="none" xmlns="http://www.w3.org/2000/svg">
<path d="M14.6444 85.3553C5.26758 75.9785 -0.000259194 63.2608 -0.000259753 50C-0.000260312 36.7392 5.26758 24.0215 14.6444 14.6447C24.0212 5.26784 36.7389 -7.09903e-07 49.9997 -1.26881e-06C63.2606 -1.82771e-06 75.9783 5.26784 85.3551 14.6447C94.7319 24.0215 99.9997 36.7392 99.9997 50C99.9997 63.2608 94.7319 75.9785 85.3551 85.3553C75.9783 94.7322 63.2606 100 49.9997 100C36.7389 100 24.0212 94.7322 14.6444 85.3553ZM28.349 46.8755C27.9341 46.8683 27.522 46.9437 27.1366 47.0975C26.7511 47.2513 26.4002 47.4803 26.1043 47.7712C25.8083 48.062 25.5733 48.4089 25.4128 48.7916C25.2523 49.1743 25.1697 49.585 25.1697 50C25.1697 50.4149 25.2523 50.8257 25.4128 51.2084C25.5733 51.5911 25.8083 51.938 26.1043 52.2288C26.4002 52.5197 26.7512 52.7487 27.1366 52.9025C27.522 53.0562 27.9341 53.1317 28.349 53.1245L64.5529 53.1245L52.3199 65.3575C51.7339 65.9435 51.4046 66.7384 51.4046 67.5672C51.4046 68.396 51.7339 69.1908 52.3199 69.7769C52.906 70.3629 53.7008 70.6922 54.5296 70.6922C55.3584 70.6922 56.1533 70.3629 56.7393 69.7769L74.3065 52.2097C74.8926 51.6237 75.2218 50.8288 75.2218 50C75.2218 49.1712 74.8926 48.3763 74.3065 47.7903L56.7393 30.2231C56.1533 29.6371 55.3584 29.3078 54.5296 29.3078C53.7008 29.3078 52.906 29.6371 52.3199 30.2231C51.7339 30.8092 51.4046 31.604 51.4046 32.4328C51.4046 33.2616 51.7339 34.0565 52.3199 34.6425L64.5529 46.8755L28.349 46.8755Z" fill="white"/>
</svg>
