<svg width="547" height="128" viewBox="0 0 547 128" fill="none" xmlns="http://www.w3.org/2000/svg">
<path d="M23.8061 70.915C11.2229 70.5749 7.0568 71 3.99602 71C3.06079 71 2.55066 70.4899 2.55066 69.7247V69.1296C2.55066 68.3644 3.06079 67.8542 3.82598 67.7692L7.99204 67.1741C11.3929 66.6639 11.733 64.2833 11.733 52.8904V27.8941C11.733 16.5012 11.3929 14.1205 7.99204 13.6104L3.82598 13.0153C3.06079 12.9302 2.55066 12.4201 2.55066 11.6549V11.0598C2.55066 10.2946 3.06079 9.78444 3.99602 9.78444C6.97178 9.69942 10.3727 10.2095 23.8061 9.86946L30.6928 9.69942C40.8954 9.44435 48.4624 15.736 48.4624 24.7483C48.4624 30.5297 43.8712 34.8658 37.3245 37.4165C36.1342 37.8416 35.9642 38.0116 35.9642 38.4367C35.9642 38.8619 36.2192 39.0319 37.3245 39.372C45.3166 42.0077 50.4179 46.2587 50.4179 54.3358C50.4179 65.0485 42.5959 71.3401 30.6928 71.0851L23.8061 70.915ZM18.5347 62.4979C18.5347 66.6639 20.4052 67.3441 24.9964 67.6842C37.5796 68.9595 42.5108 61.9877 42.5108 54.3358C42.5108 45.8336 36.9844 39.7121 23.2109 40.6473C19.555 40.9024 18.5347 40.7323 18.5347 42.9429V62.4979ZM18.5347 35.2909C18.5347 37.5015 19.555 37.3315 23.2109 37.5865C36.9844 38.5218 40.8104 31.2949 40.8104 25.3434C40.8104 18.5417 35.8792 11.3998 24.9964 12.6752C20.4052 13.1853 18.5347 13.8655 18.5347 18.0315V35.2909ZM82.03 72.0203C77.4955 72.0203 73.4145 71.2551 69.7869 69.7247C66.1593 68.1377 63.0702 65.9554 60.5195 63.1781C57.9688 60.4007 56.0134 57.1415 54.653 53.4006C53.3493 49.6596 52.6975 45.6069 52.6975 41.2425C52.6975 36.878 53.3493 32.8253 54.653 29.0844C56.0134 25.3434 57.9688 22.0842 60.5195 19.3069C63.0702 16.5295 66.1309 14.3756 69.7018 12.8452C73.3294 11.2581 77.4388 10.4646 82.03 10.4646C86.5645 10.4646 90.6172 11.2298 94.1881 12.7602C97.8157 14.2339 100.905 16.3594 103.455 19.1368C106.006 21.8575 107.962 25.1167 109.322 28.9143C110.682 32.6553 111.362 36.7647 111.362 41.2425C111.362 45.7203 110.682 49.858 109.322 53.6556C107.962 57.3966 106.006 60.6557 103.455 63.4331C100.905 66.1538 97.8157 68.2794 94.1881 69.8097C90.6172 71.2835 86.5645 72.0203 82.03 72.0203ZM82.03 65.7287C86.6778 65.7287 90.6455 64.6801 93.933 62.5829C97.2205 60.4857 99.7145 57.595 101.415 53.9107C103.172 50.2264 104.051 46.0037 104.051 41.2425C104.051 36.3679 103.172 32.1168 101.415 28.4892C99.7145 24.8049 97.2205 21.9425 93.933 19.902C90.6455 17.8615 86.6778 16.8412 82.03 16.8412C77.4388 16.8412 73.4995 17.8898 70.212 19.987C66.9245 22.0842 64.4022 24.975 62.645 28.6593C60.8879 32.2868 60.0094 36.4812 60.0094 41.2425C60.0094 45.947 60.8879 50.1697 62.645 53.9107C64.4022 57.595 66.9245 60.4857 70.212 62.5829C73.4995 64.6801 77.4388 65.7287 82.03 65.7287Z" fill="white"/>
<path d="M119.265 95C117.338 95 115.822 94.5324 114.717 93.5972C113.611 92.662 113.059 90.9757 113.059 88.5384V76.9329H109.403V73.9147H113.059V68.8559H116.63V73.9147H122.539V76.9329H116.63V88.5384C116.63 89.8704 116.899 90.7773 117.437 91.2591C117.976 91.7125 118.925 91.9393 120.286 91.9393H122.539V95H119.265ZM124.822 95V65.2425H128.393V77.5281C129.102 76.2244 130.108 75.2183 131.412 74.5098C132.715 73.773 134.132 73.4045 135.663 73.4045C138.1 73.4045 140.055 74.1697 141.529 75.7001C143.003 77.2022 143.74 79.5261 143.74 82.6719V95H140.211V83.0545C140.211 80.8723 139.758 79.2285 138.851 78.1232C137.972 77.018 136.655 76.4653 134.897 76.4653C133.055 76.4653 131.511 77.1313 130.264 78.4633C129.017 79.767 128.393 81.6375 128.393 84.0748V95H124.822ZM156.079 95.5102C154.124 95.5102 152.352 95.0567 150.765 94.1498C149.207 93.2429 147.974 91.9676 147.067 90.3239C146.16 88.6518 145.706 86.6963 145.706 84.4574C145.706 82.2468 146.132 80.3196 146.982 78.6759C147.86 77.0038 149.079 75.7143 150.638 74.8074C152.225 73.8722 154.067 73.4045 156.164 73.4045C158.148 73.4045 159.877 73.8438 161.35 74.7224C162.824 75.6009 163.972 76.7912 164.794 78.2933C165.644 79.767 166.069 81.4249 166.069 83.2671C166.069 83.6638 166.069 83.9756 166.069 84.2023C166.069 84.429 166.055 84.7833 166.027 85.2651H149.235C149.32 86.6538 149.646 87.9007 150.213 89.006C150.808 90.083 151.601 90.9332 152.593 91.5567C153.613 92.1802 154.775 92.4919 156.079 92.4919C157.553 92.4919 158.786 92.1518 159.778 91.4716C160.769 90.7915 161.492 89.8704 161.946 88.7084H165.474C165.106 90.0121 164.496 91.1741 163.646 92.1943C162.796 93.2146 161.733 94.0223 160.458 94.6174C159.211 95.2126 157.751 95.5102 156.079 95.5102ZM149.277 82.5019H162.541C162.456 80.603 161.804 79.1152 160.585 78.0382C159.367 76.9613 157.865 76.4228 156.079 76.4228C154.379 76.4228 152.862 76.9471 151.53 77.9957C150.227 79.016 149.476 80.518 149.277 82.5019Z" fill="white"/>
<path d="M201.6 99.88C183.84 99.4 177.96 100 173.64 100C172.32 100 171.6 99.28 171.6 98.2V97.36C171.6 96.28 172.32 95.56 173.4 95.44L179.28 94.6C184.08 93.88 184.56 90.52 184.56 74.44V39.16C184.56 23.08 184.08 19.72 179.28 19L173.4 18.16C172.32 18.04 171.6 17.32 171.6 16.24V15.4C171.6 14.32 172.32 13.6 173.64 13.6C177.84 13.48 182.64 14.2 201.6 13.72L211.32 13.48C225.72 13.12 236.4 22 236.4 34.72C236.4 42.88 229.92 49 220.68 52.6C219 53.2 218.76 53.44 218.76 54.04C218.76 54.64 219.12 54.88 220.68 55.36C231.96 59.08 239.16 65.08 239.16 76.48C239.16 91.6 228.12 100.48 211.32 100.12L201.6 99.88ZM194.16 88C194.16 93.88 196.8 94.84 203.28 95.32C221.04 97.12 228 87.28 228 76.48C228 64.48 220.2 55.84 200.76 57.16C195.6 57.52 194.16 57.28 194.16 60.4V88ZM194.16 49.6C194.16 52.72 195.6 52.48 200.76 52.84C220.2 54.16 225.6 43.96 225.6 35.56C225.6 25.96 218.64 15.88 203.28 17.68C196.8 18.4 194.16 19.36 194.16 25.24V49.6ZM241.898 100C240.818 100 240.098 99.28 240.098 98.2V97.48C240.098 96.4 240.698 95.8 241.778 95.56C246.098 94.84 248.258 92.92 248.258 88.24V55.12C248.258 49.36 245.618 47.8 240.698 47.8C239.498 47.8 238.898 46.96 238.898 45.88V45.52C238.898 44.44 239.378 43.6 240.458 43.48C248.378 42.64 251.378 40.6 254.258 39.4C255.098 39.04 255.698 39.16 256.418 39.76C257.258 40.36 257.138 41.08 257.138 41.92V93.4C257.138 94.6 257.858 95.08 259.058 94.96L263.978 94.6C265.178 94.48 265.778 95.08 265.898 96.28L266.138 98.2C266.258 99.28 265.418 100 264.338 100H241.898ZM245.618 20.08C245.618 16.12 248.738 13 252.698 13C256.538 13 259.778 16.24 259.778 20.08C259.778 24.16 256.538 27.16 252.698 27.16C248.738 27.16 245.618 24.16 245.618 20.08ZM308.221 103.12C307.141 103.12 306.661 102.64 306.181 101.44C305.821 100.48 305.581 100 303.421 100H266.821C265.501 100 264.661 99.16 264.661 97.84V94.36C264.661 93.28 264.901 92.44 265.621 91.6L299.701 50.8C300.301 50.08 299.941 49.36 298.981 49.36H276.181C271.981 49.36 270.781 51.04 270.061 54.04L269.941 54.52C269.701 55.6 269.341 56.2 268.141 56.2C266.701 56.2 266.101 55.48 265.981 54.28L264.781 39.88C264.541 37.6 265.621 36.88 266.701 36.88H267.061C268.141 36.88 268.501 37.24 269.101 38.44C269.461 39.28 269.941 40 272.101 40H307.981C309.301 40 310.141 40.84 310.141 42.16V45.64C310.141 46.72 309.901 47.56 309.181 48.4L275.341 88.84C274.861 89.44 275.221 90.04 275.941 90.04H301.981C305.941 90.04 307.861 88.72 308.581 85.96L308.701 85.48C309.061 84.28 309.541 83.8 310.741 83.8C312.181 83.8 312.781 84.64 312.661 85.96L310.741 100.12C310.381 102.4 309.781 103.12 308.701 103.12H308.221ZM343.437 127.84C338.717 127.84 334.197 127.24 329.877 126.04C325.557 124.84 322.037 122.8 319.317 119.92C316.677 117.12 315.357 113.36 315.357 108.64C315.357 105.36 316.117 102.64 317.637 100.48C319.157 98.32 321.157 96.68 323.637 95.56C321.717 94.44 320.157 93.04 318.957 91.36C317.757 89.68 317.157 87.76 317.157 85.6C317.157 80.8 319.317 76.92 323.637 73.96C322.037 72.12 320.757 70.08 319.797 67.84C318.917 65.52 318.477 62.96 318.477 60.16C318.477 55.76 319.477 52 321.477 48.88C323.557 45.68 326.357 43.24 329.877 41.56C333.477 39.88 337.557 39.04 342.117 39.04C345.477 39.04 348.637 39.52 351.597 40.48H371.877V49H362.637C363.677 50.6 364.437 52.36 364.917 54.28C365.477 56.12 365.757 58.08 365.757 60.16C365.757 64.72 364.677 68.56 362.517 71.68C360.437 74.8 357.597 77.2 353.997 78.88C350.477 80.48 346.517 81.28 342.117 81.28C339.877 81.28 337.837 81.04 335.997 80.56C334.157 80.08 332.317 79.4 330.477 78.52C328.397 79.56 327.357 81.16 327.357 83.32C327.357 87.32 330.717 89.32 337.437 89.32H347.397C351.877 89.32 355.837 89.92 359.277 91.12C362.717 92.24 365.397 94.12 367.317 96.76C369.317 99.32 370.317 102.84 370.317 107.32C370.317 111.88 369.037 115.68 366.477 118.72C363.917 121.76 360.597 124.04 356.517 125.56C352.437 127.08 348.077 127.84 343.437 127.84ZM343.197 119.44C347.997 119.44 352.077 118.52 355.437 116.68C358.797 114.92 360.477 112.2 360.477 108.52C360.477 101.64 356.317 98.2 347.997 98.2H337.797C333.877 98.2 330.797 99.04 328.557 100.72C326.317 102.48 325.197 105.08 325.197 108.52C325.197 111.16 326.037 113.28 327.717 114.88C329.397 116.48 331.597 117.64 334.317 118.36C337.037 119.08 339.997 119.44 343.197 119.44ZM341.877 72.88C346.037 72.88 349.437 71.68 352.077 69.28C354.717 66.88 356.037 63.84 356.037 60.16C356.037 56.48 354.717 53.44 352.077 51.04C349.437 48.64 346.037 47.44 341.877 47.44C337.717 47.44 334.357 48.64 331.797 51.04C329.317 53.44 328.077 56.48 328.077 60.16C328.077 63.84 329.277 66.88 331.677 69.28C334.157 71.68 337.557 72.88 341.877 72.88ZM401.935 101.44C396.415 101.44 391.415 100.16 386.935 97.6C382.535 95.04 379.055 91.44 376.495 86.8C373.935 82.08 372.655 76.56 372.655 70.24C372.655 64 373.855 58.56 376.255 53.92C378.735 49.2 382.175 45.56 386.575 43C391.055 40.36 396.255 39.04 402.175 39.04C407.775 39.04 412.655 40.28 416.815 42.76C420.975 45.24 424.215 48.6 426.535 52.84C428.935 57 430.135 61.68 430.135 66.88C430.135 68 430.135 68.88 430.135 69.52C430.135 70.16 430.095 71.16 430.015 72.52H382.615C382.855 76.44 383.775 79.96 385.375 83.08C387.055 86.12 389.295 88.52 392.095 90.28C394.975 92.04 398.255 92.92 401.935 92.92C406.095 92.92 409.575 91.96 412.375 90.04C415.175 88.12 417.215 85.52 418.495 82.24H428.455C427.415 85.92 425.695 89.2 423.295 92.08C420.895 94.96 417.895 97.24 414.295 98.92C410.775 100.6 406.655 101.44 401.935 101.44ZM382.735 64.72H420.175C419.935 59.36 418.095 55.16 414.655 52.12C411.215 49.08 406.975 47.56 401.935 47.56C397.135 47.56 392.855 49.04 389.095 52C385.415 54.88 383.295 59.12 382.735 64.72ZM442.416 27.28C440.416 27.28 438.736 26.64 437.376 25.36C436.096 24 435.456 22.32 435.456 20.32C435.456 18.4 436.096 16.8 437.376 15.52C438.736 14.24 440.416 13.6 442.416 13.6C444.336 13.6 445.976 14.24 447.336 15.52C448.696 16.8 449.376 18.4 449.376 20.32C449.376 22.32 448.696 24 447.336 25.36C445.976 26.64 444.336 27.28 442.416 27.28ZM437.376 100V40.48H447.456V100H437.376ZM480.607 101.44C475.887 101.44 471.647 100.64 467.887 99.04C464.127 97.36 461.087 95.04 458.767 92.08C456.527 89.04 455.127 85.48 454.567 81.4H464.887C465.527 84.52 467.167 87.24 469.807 89.56C472.527 91.8 476.167 92.92 480.727 92.92C484.967 92.92 488.087 92.04 490.087 90.28C492.087 88.44 493.087 86.28 493.087 83.8C493.087 81.4 492.487 79.56 491.287 78.28C490.167 77 488.487 76.04 486.247 75.4C484.087 74.68 481.407 74 478.207 73.36C474.847 72.64 471.567 71.68 468.367 70.48C465.167 69.2 462.527 67.48 460.447 65.32C458.367 63.16 457.327 60.32 457.327 56.8C457.327 53.28 458.207 50.2 459.967 47.56C461.727 44.92 464.207 42.84 467.407 41.32C470.687 39.8 474.527 39.04 478.927 39.04C485.247 39.04 490.407 40.64 494.407 43.84C498.487 46.96 500.847 51.44 501.487 57.28H491.527C491.127 54.24 489.807 51.88 487.567 50.2C485.407 48.44 482.487 47.56 478.807 47.56C475.207 47.56 472.407 48.32 470.407 49.84C468.487 51.36 467.527 53.36 467.527 55.84C467.527 57.44 468.087 58.8 469.207 59.92C470.327 61.04 471.927 62 474.007 62.8C476.167 63.6 478.687 64.32 481.567 64.96C485.567 65.76 489.207 66.76 492.487 67.96C495.767 69.16 498.407 70.92 500.407 73.24C502.407 75.48 503.407 78.72 503.407 82.96C503.487 86.48 502.567 89.64 500.647 92.44C498.807 95.24 496.167 97.44 492.727 99.04C489.367 100.64 485.327 101.44 480.607 101.44ZM531.431 100C525.991 100 521.711 98.68 518.591 96.04C515.471 93.4 513.911 88.64 513.911 81.76V49H503.591V40.48H513.911V26.2H523.991V40.48H540.671V49H523.991V81.76C523.991 85.52 524.751 88.08 526.271 89.44C527.791 90.72 530.471 91.36 534.311 91.36H540.671V100H531.431Z" fill="white"/>
</svg>
