<svg width="316" height="56" viewBox="0 0 316 56" fill="none" xmlns="http://www.w3.org/2000/svg">
<g clip-path="url(#clip0_751_2680)">
<path d="M5.30562 18.66V2.93105H2.96081V5.54287H0.000488281V2.64085H2.66771V0H10.9332V2.64085H13.6297V5.54287H10.6401V2.93105H8.29526V18.66H5.30562ZM15.7009 18.66V0H18.6612V7.89352H21.006V5.25267H23.9956V7.89352H26.3404V0H29.33V18.66H26.3404V10.7665H18.6612V18.66H15.7009ZM34.9557 18.66V16.0482H32.2885V2.64085H34.9557V0H43.2212V2.64085H45.9177V5.54287H42.9281V2.93105H35.2488V7.89352H40.5833V10.7665H35.2488V15.758H42.9281V13.1172H45.9177V16.0482H43.2212V18.66H34.9557ZM22.4227 34.1822V38.5352H13.6297V42.8883H22.4227V51.5943H18.0262V55.9474H0.44014V51.5943H9.23318V47.2413H0.44014V38.5352H4.83666V34.1822H22.4227ZM48.2271 34.1822V55.9474H26.2444V34.1822H35.0375V51.5943H39.434V34.1822H48.2271ZM74.0314 34.1822V42.8883H69.6349V47.2413H74.0314V55.9474H52.0488V34.1822H74.0314ZM65.2384 38.5352H60.8419V42.8883H65.2384V38.5352ZM65.2384 47.2413H60.8419V51.5943H65.2384V47.2413ZM85.1807 42.8883V47.2413H76.3877V42.8883H85.1807ZM109.497 34.1822V55.9474H100.704V47.2413H96.3071V55.9474H87.5141V34.1822H96.3071V42.8883H100.704V34.1822H109.497ZM135.301 34.1822V55.9474H113.318V34.1822H122.112V51.5943H126.508V34.1822H135.301ZM161.105 34.1822V55.9474H152.312V51.5943H147.916V55.9474H139.123V34.1822H143.519V38.5352H147.916V42.8883H152.312V38.5352H156.709V34.1822H161.105ZM186.91 38.5352V55.9474H178.117V51.5943H173.72V55.9474H164.927V38.5352H169.324V34.1822H182.513V38.5352H186.91ZM173.72 47.2413H178.117V38.5352H173.72V47.2413ZM212.714 34.1822V55.9474H203.921V51.5943H199.525V47.2413H195.128V55.9474H190.732V34.1822H199.525V38.5352H203.921V42.8883H208.318V34.1822H212.714ZM238.519 38.5352V51.5943H234.122V55.9474H220.933V51.5943H216.536V38.5352H220.933V34.1822H234.122V38.5352H238.519ZM229.726 38.5352H225.329V51.5943H229.726V38.5352ZM264.323 34.1822V38.5352H259.926V51.5943H264.323V55.9474H242.34V51.5943H246.737V38.5352H242.34V34.1822H264.323ZM290.127 38.5352V51.5943H285.731V55.9474H268.145V34.1822H285.731V38.5352H290.127ZM281.334 38.5352H276.938V51.5943H281.334V38.5352ZM315.932 34.1822V42.8883H311.535V47.2413H307.139V51.5943H315.932V55.9474H293.949V47.2413H298.346V42.8883H302.742V38.5352H293.949V34.1822H315.932Z" fill="white"/>
</g>
<defs>
<clipPath id="clip0_751_2680">
<rect width="316" height="56" fill="white"/>
</clipPath>
</defs>
</svg>
