<svg width="18" height="16" viewBox="0 0 18 16" fill="none" xmlns="http://www.w3.org/2000/svg">
<path d="M6.48195 0.100327C6.56008 0.135457 6.63337 0.192998 6.68606 0.269921C6.81144 0.451024 6.89685 1.01311 6.88534 1.23297C6.88352 1.26871 6.8175 1.29476 6.88534 1.3099C6.84718 1.52189 6.83749 1.72904 6.80296 1.94406C6.71938 2.46859 6.55645 2.97858 6.41835 3.48616C6.30145 3.91499 6.10278 4.43286 6.44076 4.82656C6.48619 4.87986 6.5728 4.91317 6.59582 4.93922C6.69757 5.05248 6.8278 5.10881 6.96166 5.18573C7.88716 5.72056 8.74542 5.68301 9.74966 5.33716C9.89261 5.2881 10.2815 5.13849 10.3953 5.06278C10.4383 5.03431 10.5613 4.91438 10.6079 4.8732C10.6376 4.84715 10.8563 4.64424 10.8647 4.6285C10.875 4.60972 10.8623 4.57701 10.8763 4.55218C10.8859 4.53582 10.935 4.52008 10.9556 4.48797C10.9762 4.45587 10.9762 4.40499 10.9835 4.39651C10.9883 4.39106 11.018 4.39167 11.0416 4.36744C11.1512 4.25721 11.2687 3.9053 11.3366 3.75387C11.4571 3.48313 11.574 3.24691 11.6467 2.95012C11.766 2.46375 11.7424 1.99857 11.6116 1.52068C11.6031 1.49039 11.4977 1.41832 11.6001 1.38258V1.36744C11.5861 1.36744 11.5716 1.36017 11.5619 1.34987C11.4813 1.26326 11.3965 0.85805 11.4099 0.738729C11.4123 0.718741 11.4317 0.703598 11.4365 0.685427C11.4408 0.668468 11.4293 0.649086 11.4347 0.633944C11.4832 0.500691 11.7709 0.466166 11.8944 0.458292C12.3426 0.431036 12.9332 0.51765 13.2869 0.802932C13.3311 0.838668 13.3717 0.9059 13.4008 0.927705C13.4299 0.94951 13.5044 0.956778 13.5286 0.991303C13.5462 1.01674 13.5395 1.05611 13.5449 1.06217C13.551 1.06883 13.6655 1.08397 13.7109 1.12758C13.7448 1.16029 13.74 1.19784 13.7594 1.22268C13.7709 1.23782 13.8872 1.31656 13.9259 1.35896C14.0253 1.46738 14.2088 1.71753 14.2754 1.8417C14.3105 1.90772 14.3336 2.0331 14.3663 2.08397C14.3808 2.10699 14.445 2.14152 14.4589 2.16332C14.482 2.19785 14.4753 2.23661 14.4874 2.25478C14.4947 2.26629 14.5268 2.26811 14.5389 2.29052C14.5619 2.33352 14.554 2.41892 14.5898 2.47768C14.6776 2.62304 14.697 2.64606 14.7654 2.81262C15.1264 3.6927 15.322 4.71511 15.422 5.67756C15.4389 5.8411 15.4329 6.06884 15.4632 6.23177C15.468 6.2566 15.4983 6.27659 15.4971 6.29537C15.4971 6.30566 15.4723 6.32686 15.4692 6.35896C15.4632 6.42801 15.4947 6.54491 15.4983 6.61759C15.5377 7.46496 15.4595 8.35291 15.3644 9.19603C15.3554 9.27417 15.362 9.3729 15.3487 9.45406C15.3305 9.56551 15.3227 9.68422 15.3069 9.81081C15.2148 10.5655 15.0495 11.5661 15.2391 12.3244C15.2669 12.4353 15.2809 12.4195 15.2845 12.5383C15.2845 12.5498 15.3251 12.58 15.336 12.6097C15.3432 12.6297 15.3342 12.6594 15.3402 12.683C15.3856 12.849 15.4795 12.9762 15.5256 13.1361C15.5776 13.3172 15.7812 13.5207 15.8617 13.6939C15.8732 13.7181 15.8551 13.7436 15.8617 13.7575C15.8684 13.7727 16.0695 13.9526 16.0937 13.9907C16.1179 14.0289 16.078 14.0119 16.1319 14.0749C16.2167 14.1736 16.3033 14.259 16.385 14.3632C16.3965 14.3777 16.3917 14.4086 16.4111 14.4329C16.4662 14.5019 16.6055 14.5643 16.6582 14.6315C16.6836 14.6642 16.6958 14.7188 16.7224 14.743C16.7454 14.7636 16.8096 14.7908 16.8526 14.8229C17.0689 14.9834 17.2627 15.1773 17.4626 15.3402C17.6243 15.4716 17.9362 15.6194 17.9968 15.8266C18.0277 15.9326 17.8272 15.9562 17.7539 15.9677C17.4523 16.0155 17.0247 15.9392 16.7327 15.8466C16.4644 15.7612 16.319 15.5982 16.0907 15.4535C16.0047 15.3989 15.9296 15.3299 15.8411 15.2687C15.7309 15.1918 15.5795 15.1034 15.482 15.0155C15.4644 14.9998 15.4723 14.9719 15.4462 14.9519C15.4068 14.9217 15.3626 14.9556 15.4081 14.8556C15.3081 14.8272 15.2197 14.7993 15.1627 14.7103C15.0852 14.5891 15.0483 14.5807 14.958 14.4892C14.8351 14.365 14.7339 14.2057 14.6443 14.0658C14.5934 13.9865 14.5474 13.9089 14.4995 13.8447C14.3856 13.6921 14.2912 13.4922 14.1979 13.3184C13.4081 11.8447 13.9471 10.1009 14.0992 8.52432C14.2663 6.78598 14.2076 4.98222 13.7139 3.29355C13.6824 3.18452 13.6558 3.07247 13.6285 2.97798C13.591 2.84594 13.4765 2.69027 13.4389 2.54854C13.4341 2.52916 13.4529 2.50312 13.4389 2.46798C13.4311 2.448 13.3711 2.41711 13.3469 2.36683C13.3354 2.34261 13.3408 2.31293 13.3293 2.2887C13.2239 2.07247 13.0949 1.84594 12.9495 1.64061C12.9338 1.6182 12.8696 1.57761 12.8587 1.55944C12.8296 1.51099 12.8811 1.54551 12.8036 1.46072C12.786 1.44194 12.6661 1.28628 12.6534 1.30021C12.6467 1.33473 12.6873 1.34927 12.6927 1.37774C12.7121 1.4698 12.7176 1.48797 12.7466 1.57943C13.0077 2.39167 12.7478 3.25236 12.4383 3.97616C12.3681 4.14091 12.2778 4.33837 12.1755 4.47889C12.1167 4.55945 12.0622 4.65272 11.9847 4.73328C11.9453 4.77447 11.8496 4.8314 11.8236 4.87562C11.8114 4.89621 11.8254 4.91741 11.8169 4.93074C11.8042 4.95072 11.4844 5.23601 11.462 5.24509C11.279 5.31959 11.0973 5.43891 10.9011 5.5122C9.40321 6.07489 7.445 6.1397 6.01738 5.34806C5.97256 5.32323 5.71332 5.16696 5.69333 5.14576C5.6788 5.13001 5.68182 5.10094 5.67395 5.09427C5.66486 5.0864 5.58431 5.0761 5.55584 5.05309C5.18455 4.75811 5.15124 4.33776 5.23603 3.89197C5.31114 3.49827 5.47831 3.11365 5.58734 2.73328C5.70726 2.31656 5.82174 1.87622 5.86777 1.45345C5.86898 1.44255 5.89745 1.44497 5.90048 1.43285C5.94409 1.25175 5.95741 0.613955 5.91199 0.436487C5.90654 0.414682 5.85263 0.281429 5.84415 0.280218C5.79569 0.307474 5.5625 0.340787 5.55342 0.385609L5.56553 0.437699C5.49951 0.492817 5.41168 0.484943 5.34324 0.510987C5.20878 0.561866 4.88715 1.07428 4.79206 1.21844C4.53101 1.61577 4.33113 2.00039 4.14094 2.44679C4.05372 2.65151 3.95378 2.87077 3.88594 3.08398C3.51405 4.25297 3.54978 5.68785 3.5837 6.92165C3.60066 7.54188 3.63276 8.16938 3.54251 8.80839C3.52798 8.91136 3.39351 9.68544 3.36444 9.72238C3.26813 9.84594 3.07855 10.5704 2.98951 10.8029C2.84415 11.1815 2.69212 11.5655 2.47104 11.9247C2.38382 12.0664 2.26571 12.3045 2.16819 12.4177C2.0301 12.5782 1.92047 12.7515 1.78721 12.9204C1.67758 13.0598 1.54615 13.1809 1.42622 13.3166C1.3178 13.4389 1.23119 13.591 1.09127 13.6976C1.06704 13.7163 1.01011 13.7303 1.00042 13.7424C0.987091 13.7587 0.994359 13.7969 0.976189 13.8138C0.841725 13.9429 0.433487 13.9017 0.263893 13.8581C0.149417 13.8284 -0.117089 13.7733 0.0579568 13.6358C0.17001 13.5486 0.271767 13.425 0.367466 13.3087C0.553414 13.0834 0.713318 12.8514 0.870798 12.6176C0.943481 12.5098 1.02586 12.428 1.10036 12.3063C1.18758 12.1645 1.29478 12.0307 1.3608 11.8944C1.99073 10.6043 2.51526 9.09367 2.50738 7.61457C2.50678 7.48737 2.46862 7.28749 2.4777 7.16757C2.47952 7.14334 2.50859 7.12698 2.50557 7.10821C2.45408 6.79143 2.47165 6.43346 2.47649 6.10094C2.48618 5.4583 2.50617 4.81081 2.62368 4.17968C2.79872 3.23964 3.15669 2.44739 3.66426 1.65151C3.92047 1.24933 4.39957 0.598207 4.81205 0.331096C5.24148 0.0524771 6.00466 -0.117117 6.48255 0.0960871L6.48195 0.100327Z" fill="#B3B3B3"></path>
<path d="M7.45462 6.86779C7.63148 7.10462 7.79078 7.52497 7.78957 7.83327C7.78957 7.8684 7.7714 7.88899 7.76292 7.9211L7.80895 7.94714C7.78109 8.0174 7.79684 8.10099 7.79018 8.17185C7.77382 8.34145 7.729 8.55344 7.65268 8.70305C7.33712 9.31904 6.79078 9.4535 6.10453 9.34266C5.58545 9.25847 4.73082 8.87325 4.82106 8.22939C4.86528 7.91383 5.18387 7.20274 5.44008 7.01558C5.92161 6.66368 6.94099 7.01437 7.04275 7.62309C7.10877 8.01558 6.74051 8.62855 6.32016 8.66004C5.97491 8.68609 5.52367 8.37173 5.58908 7.99257C5.62603 7.77755 5.89738 7.45713 6.12876 7.59765C6.24021 7.66549 6.17903 7.783 6.06879 7.77028C6.00398 7.76301 6.0167 7.70668 5.94826 7.77876C5.81683 7.91746 5.82954 8.15126 5.93191 8.30389C5.97794 8.37234 6.16873 8.53224 6.2505 8.51225C6.39102 8.47773 6.56122 8.22758 6.61998 8.09977C6.70053 7.92291 6.7399 7.68306 6.65753 7.49953C6.65511 7.49408 6.60423 7.41352 6.59696 7.40262C6.43706 7.17004 6.03488 6.91867 5.76534 7.11734C5.58303 7.2518 5.34681 7.75635 5.27291 7.97621C5.24142 8.06949 5.1966 8.26271 5.20205 8.38142C5.22022 8.77512 5.72839 9.06646 6.07243 9.15126C6.41646 9.23606 6.67267 9.22637 6.93554 8.95562C6.95553 8.93503 6.9628 8.92897 6.9846 8.90656C7.08394 8.8048 7.2075 8.5068 7.22082 8.36567C7.25232 8.03254 7.24081 7.68548 7.13421 7.35659C7.07606 7.1767 6.92343 6.9005 6.78472 6.76664C6.76413 6.74666 6.59635 6.60613 6.58424 6.60068C6.53336 6.57585 6.27776 6.57161 6.28503 6.49105C6.29956 6.33054 6.74778 6.39959 6.85256 6.42806C6.91071 6.44381 6.99187 6.47773 7.04517 6.50619C7.14451 6.55889 7.388 6.77815 7.45523 6.8684L7.45462 6.86779Z" fill="#B3B3B3"></path>
<path d="M10.9243 7.14008C11.4458 7.6525 11.5179 8.77606 10.7396 9.08436C9.96672 9.39024 9.10784 8.9608 8.96793 8.13403C8.82135 7.26849 9.76018 6.9505 10.4264 7.32785C10.7408 7.50592 10.9588 8.03591 10.6826 8.32664C10.4725 8.54772 9.92008 8.61737 9.68144 8.4078C9.56575 8.30604 9.47732 8.08497 9.54455 7.93778C9.58937 7.83905 9.79652 7.84572 9.87889 7.89175C9.95582 7.93475 9.9013 7.97291 9.89828 8.03591C9.89464 8.11646 9.99458 8.3436 10.0788 8.35329C10.1333 8.35935 10.2835 8.27939 10.3186 8.23336C10.4289 8.08921 10.4058 7.8651 10.3544 7.70217C10.1563 7.07527 9.26835 7.28848 9.2732 7.98563C9.27683 8.47079 9.74443 9.09284 10.2817 9.025C11.1248 8.9184 11.1902 7.79605 10.7317 7.24487C10.5112 6.98018 10.169 6.8754 9.87102 6.71973C9.79046 6.89841 9.4325 6.62767 9.70021 6.57982C9.88313 6.54711 10.444 6.82391 10.6227 6.92385C10.7281 6.9826 10.8377 7.05589 10.9237 7.14069L10.9243 7.14008Z" fill="#B3B3B3"></path>
</svg>