<svg width="94" height="59" viewBox="0 0 94 59" fill="none" xmlns="http://www.w3.org/2000/svg">
<path d="M0 49.2083C1.4566 46.1597 5.67367 45.0255 8.60578 43.4648C14.1535 40.5142 18.465 36.3864 20.9846 30.8137C23.112 26.1077 23.049 24.6436 17.0257 25.0939C12.9346 25.4001 8.21682 29.2545 4.42965 28.4027C1.62982 27.7725 2.72109 24.1471 3.93362 22.5298C5.60281 20.3032 13.1205 15.4128 15.977 15.1423C17.4714 15.0011 18.8603 15.3652 20.2051 15.3563C21.6821 15.3474 27.8345 13.855 29.1352 13.1876C30.3761 12.5499 31.6154 8.83238 33.6546 7.4827C36.0199 5.91749 42.0289 5.92938 42.0636 9.46114C42.0825 11.3727 39.5614 13.7242 43.0557 14.1464C46.9121 14.6131 50.4363 14.6265 54.2125 13.6915C59.1177 12.4756 56.9162 4.98549 58.2406 1.54589C58.5933 0.631733 59.4877 0.0505387 60.5113 0C60.4514 1.90263 58.787 3.02489 60.8672 4.54699C62.7017 5.88924 65.4748 6.07802 66.8243 4.04904C67.7565 2.64882 66.9077 2.33221 66.8621 1.09104C66.8511 0.793755 66.7156 0.514305 67.1739 0.599032C68.5265 1.1832 68.525 2.1033 68.7344 3.31474C68.9627 4.64064 69.0871 6.34112 68.9832 7.67593C68.8604 9.27533 67.8148 12.0996 69.2037 13.4314C70.9075 15.065 77.4205 15.2003 80.0707 15.9494C81.9446 16.4801 83.4375 17.476 85.4672 17.8416C87.6419 18.2326 93.3313 17.8937 93.8935 20.4652C94.4903 23.1913 92.503 24.7119 89.8245 24.9096C83.7524 25.36 74.3514 22.295 71.3547 29.632C69.9847 32.9854 70.4981 37.2366 70.4666 40.7327C70.4225 45.5517 69.1139 50.1656 66.4747 54.3231C65.0417 56.5795 62.0608 58.9846 59.0972 57.8148C53.6282 55.655 60.9396 49.3837 61.8466 46.5803C62.6986 43.9478 61.3223 41.7108 58.2689 41.6602C55.4092 41.6141 47.4223 45.244 45.1799 47.0233C41.6841 49.7984 40.2826 54.1418 37.3473 57.1801C34.6436 59.9775 30.2281 59.6981 30.7036 55.3057C31.1477 51.2016 40.5597 40.0876 29.5352 41.4566C26.8173 41.794 24.0993 44.5692 21.7782 45.907C17.7879 48.205 7.61843 52.3194 3.0691 52.2124C1.80934 52.1827 0.678699 51.8497 0.00157471 50.8048V49.2113L0 49.2083ZM39.3031 22.5492C36.4403 23.0531 37.5662 28.3106 38.1016 30.1656C38.5047 31.5614 40.1991 35.9479 41.0794 36.9245C42.9848 39.0367 45.4114 36.9467 46.9735 35.5629C49.8694 32.9988 58.7964 21.9145 48.4821 24.2333C47.3263 24.4934 46.246 25.25 45.013 25.0583C43.3548 24.7996 41.5424 22.1538 39.3015 22.5477L39.3031 22.5492Z" fill="#FEF1F1"></path>
</svg>