<svg width="161" height="46" viewBox="0 0 161 46" fill="none" xmlns="http://www.w3.org/2000/svg">
<path d="M16.776 10.116L17.496 16.092L16.884 16.272C14.724 11.844 12.384 10.548 9.792 10.548C7.02 10.548 5.58 11.952 5.58 14.184C5.58 17.496 8.676 18.864 11.952 20.448C15.516 22.14 19.224 24.048 19.224 28.944C19.224 34.308 14.904 36.54 9.864 36.54C7.416 36.54 4.824 36.036 2.52 35.208L1.8 28.368L2.412 28.116C4.824 33.012 7.488 35.136 10.98 35.136C14.472 35.136 16.02 33.012 16.02 30.492C16.02 26.964 13.104 25.524 10.008 23.976C6.48 22.212 2.7 20.484 2.7 15.912C2.7 11.052 6.588 9.108 10.98 9.108C13.068 9.108 15.156 9.54 16.776 10.116ZM20.4626 43.956V43.884C21.1826 41.868 21.3626 40.104 21.3626 36.864V23.76C21.3626 21.42 20.5346 20.088 19.5986 19.116V19.044L24.7466 17.028V20.412L24.9986 20.448C26.2946 18.648 28.4546 17.208 31.2986 17.208C35.9786 17.208 38.9306 21.132 38.9306 26.64C38.9306 32.04 35.9426 36.54 29.4266 36.54C27.6266 36.54 26.1146 36.18 24.9266 35.604V36.828C24.9266 40.032 24.9986 41.868 25.7906 43.884V43.956H20.4626ZM29.7146 35.136C32.8826 35.136 35.1866 32.184 35.1866 27.324C35.1866 22.032 32.8466 19.692 29.5706 19.692C27.2666 19.692 25.7546 20.808 24.9266 21.924V30.744C25.5746 33.984 27.7346 35.136 29.7146 35.136ZM49.7751 33.516C51.6831 33.516 53.5191 32.904 54.8511 31.356L55.4271 31.824C54.2031 34.416 51.7191 36.54 47.9751 36.54C42.9711 36.54 39.5511 32.868 39.5511 27.252C39.5511 21.06 43.7271 17.208 48.2631 17.208C52.8711 17.208 55.7871 21.168 55.3191 25.344H43.1871V25.884C43.1871 30.78 45.8151 33.516 49.7751 33.516ZM48.1911 18.648C45.6711 18.648 43.8351 20.772 43.3311 24.012L51.6111 23.832V23.436C51.6111 20.16 50.4591 18.648 48.1911 18.648ZM71.395 31.32L71.971 31.788C70.783 34.344 68.191 36.54 64.339 36.54C59.407 36.54 56.059 32.868 56.059 27.216C56.059 21.348 60.703 17.208 65.779 17.208C68.371 17.208 69.955 17.82 70.891 18.252L71.431 22.788L70.927 22.932C69.811 21.024 67.687 18.648 65.131 18.648C61.891 18.648 59.695 21.384 59.695 25.848C59.695 30.708 62.287 33.516 66.283 33.516C68.227 33.516 70.063 32.868 71.395 31.32ZM78.7306 36.54C75.4546 36.54 73.7626 34.092 73.7626 30.24V21.744C73.7626 19.908 73.0426 18.648 72.0706 17.892V17.748H77.2906V29.628C77.2906 32.328 78.5146 33.696 80.7106 33.696C82.6906 33.696 83.9866 32.508 84.7786 30.924V21.744C84.7786 19.944 84.1306 18.648 83.0146 17.892V17.748H88.3066V29.844C88.3066 33.624 88.8466 34.308 90.0706 35.136V35.208L84.9586 36.432V32.292C83.5906 34.452 81.8266 36.54 78.7306 36.54Z" fill="#FEF1F1"/>
<path d="M94.556 10.8H110.504C112.304 10.8 112.52 11.844 112.52 12.852C112.52 15.768 114.428 14.94 114.428 17.244C114.428 18.324 113.924 18.612 113.312 18.612C111.08 18.612 110.612 17.784 110.612 16.488C110.612 15.444 110.108 14.724 109.568 14.724C109.136 14.724 108.632 14.364 108.632 13.86C108.632 13.104 107.804 12.816 107.156 12.816H101.756C101.108 12.816 100.82 13.392 100.82 14.112V22.824C100.82 23.544 101.612 24.444 102.332 24.444H103.484C103.988 24.444 104.744 23.868 104.744 23.436C104.744 22.824 105.14 22.536 105.644 22.536C106.148 22.536 106.688 22.032 106.688 21.6C106.688 20.844 107.084 20.556 107.624 20.556C108.668 20.556 108.632 21.492 108.632 22.464V26.748C108.632 27.468 108.56 28.44 107.552 28.44C107.084 28.44 106.688 27.936 106.688 27.468C106.688 26.964 105.968 26.388 105.212 26.388H102.332C101.288 26.388 100.82 27.288 100.82 28.08V32.544C100.82 33.372 101.468 34.164 103.412 34.164C104.096 34.164 104.708 34.488 104.708 35.172C104.708 35.676 104.132 36 103.484 36H95.24C94.412 36 94.268 35.496 94.268 34.992C94.268 34.272 94.988 34.164 95.564 34.164C96.248 34.164 96.932 33.264 96.932 32.364V14.58C96.932 12.852 95.6 12.744 94.664 12.744C93.944 12.744 93.08 12.348 93.08 11.808C93.08 11.16 93.764 10.8 94.556 10.8ZM119.336 7.308C120.128 7.308 120.416 7.848 120.452 9.036L120.416 31.5C120.416 32.472 121.1 33.804 122.288 33.804C123.008 33.804 123.692 33.912 123.692 34.704C123.692 35.748 122.936 36 121.964 36H115.016C114.116 36 113.756 35.352 113.756 34.632C113.756 34.2 113.972 33.696 114.836 33.696C115.628 33.696 116.024 32.868 116.024 31.608V13.5C116.024 12.672 115.412 11.484 114.872 11.484C114.26 11.484 113.72 11.268 113.72 10.512C113.72 9.432 115.016 9.288 116.6 9.288C117.176 9.288 118.292 8.928 118.292 8.172C118.292 7.56 118.508 7.308 119.336 7.308ZM127.071 19.26C127.071 19.764 127.575 20.34 128.079 20.34C129.015 20.34 129.339 21.42 129.339 22.248V31.644C129.339 32.796 130.311 33.84 131.463 33.84C133.299 33.84 133.839 32.364 133.839 31.644V26.64C133.839 25.848 134.379 24.732 135.207 24.732C135.711 24.732 136.215 24.192 136.215 23.688C136.215 23.184 135.603 22.536 135.027 22.536C134.163 22.536 133.839 21.348 133.839 20.34C133.839 18.9 134.991 18 136.287 18C137.331 18 138.375 18.972 138.375 20.016V31.86C138.375 32.616 138.951 33.84 139.599 33.84C140.175 33.84 140.607 34.452 140.607 34.956C140.607 35.496 140.103 36 138.915 36H128.871C127.863 36 127.071 35.496 127.071 34.884C127.071 34.524 126.747 33.876 126.099 33.876C125.199 33.876 124.875 32.616 124.875 31.644V24.66C124.875 24.192 124.551 22.572 123.795 22.572C122.967 22.572 122.607 21.132 122.607 20.412C122.607 19.296 123.543 18 125.163 18C126.135 18 127.071 18.684 127.071 19.26ZM142.192 17.28H144.604C148.924 17.28 147.016 24.156 149.86 24.156C150.832 24.156 151.552 22.464 151.552 20.412C151.552 18.9 152.416 17.28 154.432 17.28H156.664C157.6 17.28 158.356 17.784 158.356 18.36C158.356 19.836 154.252 23.94 152.776 24.084C151.912 24.156 151.372 26.028 151.372 27C151.444 31.608 158.14 28.836 158.356 35.244C158.356 35.82 157.456 36 156.484 36H154.144C153.028 36 151.912 34.956 151.912 33.696C151.948 31.968 149.824 29.34 148.168 29.34C147.412 29.34 146.836 30.96 146.836 32.112V33.228C146.8 34.524 145.684 36 144.496 36H141.508C140.716 36 139.888 35.82 139.888 35.244C139.888 34.452 140.968 34.128 141.976 34.128C143.092 34.092 144.568 33.228 144.568 32.148V31.5C144.568 28.548 146.836 30.096 146.836 27.756V26.712C146.836 26.28 146.368 24.084 145.648 24.084C144.82 24.084 144.568 23.544 144.568 22.86C144.568 22.248 144.136 21.816 143.38 21.816C142.66 21.816 142.192 21.096 142.192 20.448C142.192 19.836 141.76 19.404 141.184 19.404C140.464 19.404 139.888 19.26 139.888 18.324C139.888 17.64 140.968 17.28 142.192 17.28Z" fill="#FEF1F1"/>
</svg>
