<svg width="676" height="143" viewBox="0 0 676 143" fill="none" xmlns="http://www.w3.org/2000/svg">
<path d="M34.6424 112C33.8774 112 33.1974 111.49 33.3674 110.725L33.5374 109.79C33.7074 108.94 34.0474 108.685 34.8974 108.6L39.3174 108.005C41.8674 107.665 42.3774 106.05 42.3774 95.85V86.33C42.3774 85.565 42.2074 84.97 41.7824 84.205L28.0974 61.68C24.1874 55.305 22.5724 54.965 20.0224 54.625L18.2374 54.37C17.3874 54.285 17.0474 54.03 16.8774 53.18L16.7074 52.075C16.6224 51.31 17.2174 50.8 17.9824 50.8H38.8924C39.6574 50.8 40.1674 51.31 40.1674 52.075V53.35C40.1674 54.115 39.4874 54.71 38.4674 54.71C35.0674 54.71 32.1774 55.22 34.2174 58.535L46.7974 79.105C47.1374 79.7 47.7324 79.7 47.9874 79.105L56.9974 61.34C60.2274 54.965 58.0174 54.54 53.7674 54.54C52.7474 54.54 52.0674 53.945 52.0674 53.18V52.075C52.0674 51.31 52.5774 50.8 53.3424 50.8H73.3174C74.0824 50.8 74.6774 51.31 74.5924 52.075L74.4224 53.35C74.3374 54.2 73.9124 54.455 73.0624 54.54L71.2774 54.795C68.8974 55.135 66.0924 55.815 64.0524 59.3L49.7724 83.44C49.3474 84.205 49.1774 84.8 49.1774 85.565V93.895C49.1774 105.285 49.5174 107.835 52.9174 108.175L57.0824 108.6C57.8474 108.685 58.3574 109.365 58.3574 110.13V110.725C58.3574 111.49 57.8474 112 57.0824 112H34.6424ZM84.5062 113.02C72.1812 113.02 64.1912 103.245 64.1912 90.75C64.1912 79.19 72.1812 68.48 84.5062 68.48C96.7462 68.48 104.736 78.34 104.736 90.75C104.736 102.395 96.7462 113.02 84.5062 113.02ZM71.2462 87.605C71.2462 98.825 77.2812 109.365 86.2062 109.365C93.3462 109.365 97.7662 102.395 97.7662 94.405C97.7662 83.27 91.9862 72.135 83.0612 72.135C75.1562 72.135 71.2462 79.445 71.2462 87.605ZM122.641 113.02C116.521 113.02 111.591 109.025 111.591 101.12V76.385C111.591 74.515 111.166 73.665 108.956 73.58L105.641 73.495C104.791 73.495 104.451 72.9 104.366 72.135L104.196 70.945C104.111 70.18 104.536 69.5 105.301 69.5H116.606C117.541 69.5 118.051 69.84 118.051 70.86V99.25C118.051 104.35 120.431 107.58 125.956 107.58C130.886 107.58 134.626 104.18 136.751 101.205C137.176 100.61 137.516 100.015 137.516 98.57V76.385C137.516 74.515 137.091 73.58 134.881 73.58L129.696 73.495C128.846 73.495 128.506 72.9 128.421 72.135L128.251 70.945C128.166 70.18 128.591 69.5 129.356 69.5H142.361C143.296 69.5 143.806 69.84 143.806 70.86V102.14C143.806 105.37 146.526 106.475 150.011 106.475C150.861 106.475 151.286 107.07 151.286 107.835V108.26C151.286 109.025 150.946 109.62 150.181 109.705C144.571 110.3 141.341 111.915 139.216 112.68C138.536 112.935 138.196 112.765 137.686 112.255C137.091 111.66 137.261 111.15 137.346 110.555L138.196 105.795C138.281 105.2 138.111 104.945 137.686 104.945C137.431 104.945 137.176 105.03 136.921 105.37C133.691 108.77 129.356 113.02 122.641 113.02ZM150.693 112C149.928 112 149.418 111.49 149.418 110.725V110.215C149.418 109.45 149.843 108.94 150.608 108.855C154.518 108.345 155.538 106.985 155.538 103.67V80.21C155.538 76.13 153.668 75.28 150.183 75.025C149.333 74.94 148.908 74.43 148.908 73.665V73.41C148.908 72.645 149.248 72.05 150.013 71.965C155.623 71.37 157.748 69.925 159.788 69.075C160.383 68.82 160.808 68.905 161.318 69.33C161.913 69.755 161.913 70.265 161.828 70.86L160.213 79.445C160.128 79.955 160.383 80.125 160.723 80.125C161.063 80.125 161.318 80.04 161.488 79.615C164.803 71.71 169.138 68.565 173.813 68.565C178.063 68.565 180.273 71.285 180.273 74.005C180.273 76.64 178.318 78.425 175.683 78.425C173.728 78.425 172.708 77.235 171.773 75.62C171.348 74.855 170.668 74.6 170.073 74.6C167.183 74.6 161.828 81.655 161.828 89.9V107.495C161.828 108.345 162.338 108.685 163.188 108.6L168.373 108.175C169.223 108.09 169.648 108.515 169.733 109.365L169.903 110.725C169.988 111.49 169.393 112 168.628 112H150.693Z" fill="white"/>
<path d="M213.53 73.588C204.92 73.588 199.25 67.54 199.25 58.3C199.25 48.976 206.516 42.172 215.126 42.172C219.158 42.172 221.048 43.18 222.518 43.18C223.148 43.18 223.4 42.886 223.484 42.508C223.694 41.878 223.904 41.668 224.408 41.668H224.702C225.248 41.668 225.416 42.004 225.29 43.138L224.408 50.614C224.324 51.202 223.946 51.412 223.526 51.412C222.938 51.412 222.686 51.16 222.602 50.614C222.014 47.338 219.41 43.852 214.622 43.852C208.196 43.852 203.072 50.068 203.366 58.3C203.66 66.49 209.372 70.48 214.958 70.438C219.914 70.396 222.812 68.17 224.618 66.322C224.912 66.028 225.248 65.944 225.584 66.154C225.92 66.364 226.004 66.7 225.752 67.12C223.316 71.068 218.654 73.588 213.53 73.588ZM234.729 73.504C231.705 73.504 229.269 71.53 229.269 67.624V55.402C229.269 54.478 229.059 54.058 227.967 54.016L226.329 53.974C225.909 53.974 225.741 53.68 225.699 53.302L225.615 52.714C225.573 52.336 225.783 52 226.161 52H231.747C232.209 52 232.461 52.168 232.461 52.672V66.7C232.461 69.22 233.637 70.816 236.367 70.816C238.803 70.816 240.651 69.136 241.701 67.666C241.911 67.372 242.079 67.078 242.079 66.364V55.402C242.079 54.478 241.869 54.016 240.777 54.016L238.215 53.974C237.795 53.974 237.627 53.68 237.585 53.302L237.501 52.714C237.459 52.336 237.669 52 238.047 52H244.473C244.935 52 245.187 52.168 245.187 52.672V68.128C245.187 69.724 246.531 70.27 248.253 70.27C248.673 70.27 248.883 70.564 248.883 70.942V71.152C248.883 71.53 248.715 71.824 248.337 71.866C245.565 72.16 243.969 72.958 242.919 73.336C242.583 73.462 242.415 73.378 242.163 73.126C241.869 72.832 241.953 72.58 241.995 72.286L242.415 69.934C242.457 69.64 242.373 69.514 242.163 69.514C242.037 69.514 241.911 69.556 241.785 69.724C240.189 71.404 238.047 73.504 234.729 73.504ZM248.59 73C248.212 73 247.96 72.748 247.96 72.37V72.118C247.96 71.74 248.17 71.488 248.548 71.446C250.48 71.194 250.984 70.522 250.984 68.884V46.204C250.984 44.188 250.06 43.642 248.338 43.642C247.918 43.642 247.708 43.348 247.708 42.97V42.844C247.708 42.466 247.876 42.172 248.254 42.13C251.026 41.836 252.076 41.122 253.084 40.702C253.378 40.576 253.588 40.618 253.84 40.828C254.134 41.038 254.092 41.29 254.092 41.584V70.69C254.092 71.11 254.344 71.278 254.764 71.236L256.486 71.11C256.906 71.068 257.116 71.278 257.158 71.698L257.242 72.37C257.284 72.748 256.99 73 256.612 73H248.59ZM264.831 73.42C261.891 73.42 259.455 71.698 259.455 67.204V54.688C259.455 54.52 259.329 54.394 259.161 54.394H256.599C255.759 54.394 255.633 53.302 256.389 53.008C258.447 52.252 259.707 51.58 260.799 49.144C261.051 48.556 261.387 48.052 261.849 48.052C262.311 48.052 262.563 48.43 262.563 49.144V51.706C262.563 51.874 262.689 52 262.857 52H268.317C268.695 52 268.947 52.252 268.947 52.63V53.764C268.947 54.142 268.695 54.394 268.317 54.394H262.857C262.689 54.394 262.563 54.52 262.563 54.688V66.616C262.563 70.06 264.369 70.942 266.385 70.942C267.225 70.942 267.939 70.606 268.401 70.312C268.737 70.102 268.989 70.144 269.199 70.354C269.451 70.606 269.451 70.858 269.241 71.11C268.191 72.496 266.595 73.42 264.831 73.42Z" fill="white"/>
<path d="M359.214 136.48C315.294 134.44 309.054 136 303.294 136C302.334 136 301.614 135.28 301.614 134.2V132.88C301.614 131.8 302.334 131.08 303.414 130.96L309.294 130.12C314.094 129.4 314.574 126.04 314.574 109.96V75.4C314.574 59.32 314.094 55.72 309.294 55.24L303.414 54.64C302.334 54.52 301.614 53.56 301.614 52.48V51.4C301.614 50.32 302.334 49.6 303.414 49.6H335.574C336.654 49.6 337.494 50.32 337.374 51.4L337.134 52.96C336.894 54.16 336.414 54.52 335.214 54.64L328.494 55.48C324.894 55.96 324.174 58.24 324.174 72.64V121.96C324.174 127.6 326.814 130.12 333.294 130.48C353.454 131.68 356.214 122.56 358.254 116.92C358.734 115.6 359.454 114.88 360.894 114.88H361.254C362.814 114.88 363.534 115.6 363.174 118.48L361.134 134.8C361.014 136.12 360.174 136.48 359.214 136.48ZM391.372 137.68C376.972 137.68 365.692 125.44 365.692 107.68C365.692 90.52 377.812 74.32 394.372 74.32C407.212 74.32 415.012 83.32 415.012 91.6C415.012 97.84 411.172 102.28 397.732 102.28H376.132C375.412 102.28 374.932 102.76 374.932 103.48C375.292 118.24 383.572 129.04 395.572 128.92C404.812 128.8 409.972 123.16 412.852 119.68C413.692 118.72 414.532 118.48 415.492 119.08C416.452 119.56 416.692 120.4 416.092 121.6C411.652 130.72 401.572 137.68 391.372 137.68ZM375.172 96.52C375.052 97.36 375.652 97.84 376.372 97.84H394.612C401.932 97.84 403.612 94.48 403.612 91C403.612 84.88 399.292 79.48 392.212 79.48C383.932 79.48 376.612 86.92 375.172 96.52ZM436.461 137.68C427.101 137.68 420.741 131.08 420.741 122.2C420.741 111.4 427.581 107.2 439.341 104.56L448.221 102.52C455.301 100.84 456.261 99.28 456.261 94.96V93.04C456.261 84.88 450.981 78.76 442.101 78.76C435.741 78.76 428.541 82 431.661 88.72C432.501 90.52 433.101 91.6 433.101 93.04C433.101 96.76 430.341 99.76 426.501 99.76C422.781 99.76 419.781 97.12 419.781 93.04C419.781 84.64 430.461 74.32 445.101 74.32C458.661 74.32 465.141 81.76 465.141 92.92V123.88C465.141 127.96 466.101 130.12 469.221 130.12C470.661 130.12 471.861 129.4 472.821 128.8C473.661 128.2 474.381 128.32 475.101 129.04C475.701 129.64 475.941 130.24 475.341 131.2C472.941 134.92 469.221 136.96 465.381 136.96C460.701 136.96 456.981 134.56 456.261 130.12C456.141 129.16 455.901 128.44 455.181 128.44C454.461 128.44 453.981 129.16 453.381 129.88C449.181 134.92 442.461 137.68 436.461 137.68ZM430.821 121.12C430.821 125.8 434.181 130 441.021 130C448.581 130 456.261 124 456.261 115.24V106.84C456.261 105.64 455.421 105.16 454.221 105.52L444.261 108.16C433.701 110.92 430.821 115.36 430.821 121.12ZM499.511 137.68C486.431 137.68 475.511 126.52 475.511 108.64C475.511 85.48 492.311 74.32 504.191 74.32C511.151 74.32 515.471 76.24 518.831 77.92C519.191 78.16 519.551 78.04 519.551 77.56V59.44C519.551 53.68 516.911 52.12 511.991 52.12C510.791 52.12 510.191 51.28 510.191 50.2V49.84C510.191 48.76 510.671 47.92 511.751 47.8C519.671 46.96 522.671 44.92 525.551 43.72C526.391 43.36 526.991 43.48 527.711 44.08C528.551 44.68 528.431 45.28 528.431 46.12V121.12C528.431 126.88 531.071 128.44 535.991 128.44C537.191 128.44 537.791 129.28 537.791 130.36V130.72C537.791 131.8 537.311 132.64 536.231 132.76C528.311 133.6 524.951 135.88 521.951 136.96C520.991 137.32 520.511 137.08 519.791 136.36C518.951 135.52 519.191 134.8 519.311 133.96L520.511 127.36C520.631 126.52 520.391 126.04 519.791 126.04C519.431 126.04 519.191 126.28 518.711 126.76C512.711 132.76 506.711 137.68 499.511 137.68ZM485.111 107.08C485.111 120.76 492.551 130.24 502.511 130.12C508.151 130 513.551 126.28 516.911 122.2C519.311 119.2 519.791 118.36 519.791 114.4V95.2C519.791 92.32 518.591 88.72 516.311 85.96C512.831 81.76 508.391 79.84 503.951 79.84C494.231 79.84 485.111 88.72 485.111 107.08ZM563.014 137.68C548.614 137.68 537.334 125.44 537.334 107.68C537.334 90.52 549.454 74.32 566.014 74.32C578.854 74.32 586.654 83.32 586.654 91.6C586.654 97.84 582.814 102.28 569.374 102.28H547.774C547.054 102.28 546.574 102.76 546.574 103.48C546.934 118.24 555.214 129.04 567.214 128.92C576.454 128.8 581.614 123.16 584.494 119.68C585.334 118.72 586.174 118.48 587.134 119.08C588.094 119.56 588.334 120.4 587.734 121.6C583.294 130.72 573.214 137.68 563.014 137.68ZM546.814 96.52C546.694 97.36 547.294 97.84 548.014 97.84H566.254C573.574 97.84 575.254 94.48 575.254 91C575.254 84.88 570.934 79.48 563.854 79.48C555.574 79.48 548.254 86.92 546.814 96.52ZM591.303 136C590.223 136 589.503 135.28 589.503 134.2V133.48C589.503 132.4 590.103 131.68 591.183 131.56C596.703 130.84 598.143 128.92 598.143 124.24V91.12C598.143 85.36 595.503 84.16 590.583 83.8C589.383 83.68 588.783 82.96 588.783 81.88V81.52C588.783 80.44 589.263 79.6 590.343 79.48C598.263 78.64 601.263 76.6 604.143 75.4C604.983 75.04 605.583 75.16 606.303 75.76C607.143 76.36 607.143 77.08 607.023 77.92L604.743 90.04C604.623 90.76 604.983 91 605.463 91C605.943 91 606.303 90.88 606.543 90.28C611.223 79.12 617.343 74.68 623.943 74.68C629.943 74.68 633.063 78.52 633.063 82.36C633.063 86.08 630.303 88.6 626.583 88.6C623.823 88.6 622.383 86.92 621.063 84.64C620.463 83.56 619.503 83.2 618.663 83.2C614.583 83.2 607.023 93.16 607.023 104.8V129.64C607.023 130.84 607.743 131.32 608.943 131.2L616.263 130.6C617.463 130.48 618.063 131.08 618.183 132.28L618.423 134.2C618.543 135.28 617.703 136 616.623 136H591.303ZM650.187 137.68C643.467 137.68 640.107 135.64 638.307 135.64C637.227 135.64 636.987 136.24 636.627 137.08C636.027 138.28 635.667 138.76 634.587 138.76H633.747C632.667 138.76 631.707 138.04 631.947 135.76L633.147 122.56C633.267 121.36 633.747 120.64 635.187 120.64C636.387 120.64 636.987 121.24 637.347 122.32C639.147 128.8 642.507 133.48 651.027 133.48C656.907 133.48 661.827 129.4 661.827 123.28C661.827 118.6 658.587 115.12 653.667 112.6L644.307 107.8C636.627 103.84 632.667 97.48 632.667 91.12C632.667 80.92 641.187 74.32 651.987 74.32C656.667 74.32 661.467 76.36 662.907 76.36C663.867 76.36 663.987 75.76 664.347 74.92C664.947 73.72 665.307 73.24 666.387 73.24H667.227C668.307 73.24 669.267 73.96 669.027 76.24L667.827 89.44C667.707 90.64 667.227 91.36 665.787 91.36C664.587 91.36 663.987 90.76 663.627 89.68C661.827 83.44 657.987 78.28 651.267 78.28C645.387 78.28 640.827 82.12 640.827 88.36C640.827 92.8 642.747 95.92 649.227 99.16L658.947 104.08C666.507 107.92 671.187 112.72 671.187 121C671.187 133.48 659.907 137.68 650.187 137.68Z" fill="white"/>
</svg>
