<svg preserveAspectRatio="none" width="100%" height="100%" overflow="visible" style="display: block;" viewBox="0 0 195 36" fill="none" xmlns="http://www.w3.org/2000/svg">
<g id="Group 633184">
<path id="Vector" d="M0 30.0254C1.00723 28.1652 3.92328 27.4732 5.9508 26.5209C9.78697 24.7205 12.7684 22.2018 14.5106 18.8016C15.9817 15.9301 15.9381 15.0367 11.7731 15.3116C8.94417 15.4984 5.68185 17.8502 3.06306 17.3305C1.127 16.9459 1.88161 14.7338 2.72006 13.747C3.87428 12.3884 9.07266 9.40443 11.0479 9.23936C12.0813 9.1532 13.0417 9.3754 13.9716 9.36996C14.993 9.36452 19.2473 8.45392 20.1467 8.04669C21.0048 7.65759 21.8617 5.38925 23.2718 4.56571C24.9073 3.61067 29.0626 3.61792 29.0865 5.7729C29.0996 6.93927 27.3563 8.3741 29.7725 8.63168C32.4392 8.91647 34.8762 8.92464 37.4873 8.35415C40.8792 7.61224 39.357 3.042 40.2727 0.943254C40.5166 0.385464 41.1351 0.0308372 41.8429 0C41.8015 1.16093 40.6506 1.84569 42.089 2.77444C43.3576 3.59344 45.2751 3.70862 46.2083 2.4706C46.8529 1.61623 46.266 1.42304 46.2344 0.66572C46.2268 0.484325 46.1331 0.313813 46.45 0.365511C47.3854 0.721952 47.3843 1.28337 47.5291 2.02255C47.687 2.83158 47.773 3.86916 47.7012 4.68362C47.6162 5.65953 46.8932 7.38278 47.8536 8.19543C49.0318 9.1922 53.5354 9.27473 55.3681 9.73185C56.6638 10.0556 57.6961 10.6633 59.0997 10.8864C60.6035 11.125 64.5376 10.9182 64.9264 12.4872C65.3391 14.1506 63.9649 15.0785 62.1127 15.1991C57.9139 15.4739 51.4132 13.6037 49.341 18.0806C48.3937 20.1267 48.7487 22.7206 48.7269 24.8538C48.6964 27.7943 47.7915 30.6095 45.9665 33.1463C44.9757 34.5231 42.9144 35.9906 40.8651 35.2768C37.0834 33.959 42.1391 30.1324 42.7663 28.4219C43.3554 26.8156 42.4037 25.4506 40.2923 25.4198C38.3149 25.3917 32.792 27.6065 31.2414 28.6922C28.8241 30.3855 27.855 33.0357 25.8253 34.8895C23.9557 36.5965 20.9024 36.4259 21.2312 33.7458C21.5383 31.2417 28.0466 24.4602 20.4233 25.2955C18.5439 25.5014 16.6644 27.1947 15.0594 28.011C12.3001 29.4132 5.26807 31.9237 2.12225 31.8584C1.25114 31.8403 0.469313 31.6371 0.00108889 30.9995V30.0272L0 30.0254ZM27.1777 13.7588C25.1981 14.0663 25.9766 17.2743 26.3469 18.4062C26.6256 19.2578 27.7973 21.9343 28.406 22.5302C29.7235 23.819 31.4015 22.5438 32.4817 21.6994C34.4842 20.1349 40.6571 13.3715 33.5249 14.7864C32.7256 14.9451 31.9786 15.4068 31.126 15.2898C29.9794 15.132 28.7261 13.5176 27.1766 13.7579L27.1777 13.7588Z" fill="var(--fill-0, #FEF1F1)"/>
<g id="SpeculumWordMark 1" clip-path="url(#clip0_487_1625)">
<path id="Vector_2" d="M92.8808 15.1751L92.4178 15.3089C90.7824 12.013 89.0109 11.0487 87.0493 11.0487C84.951 11.0487 83.8612 12.0936 83.8612 13.7548C83.8612 16.2201 86.2046 17.2384 88.6848 18.4171C91.3829 19.6763 94.1899 21.0966 94.1899 24.7406C94.1899 28.7333 90.9199 30.3945 87.1042 30.3945C85.2509 30.3945 83.2885 30.0191 81.5449 29.4028L81 24.3119L81.463 24.1243C83.2885 27.7682 85.3057 29.3496 87.949 29.3496C90.5922 29.3496 91.7639 27.7689 91.7639 25.8926C91.7639 23.267 89.5565 22.1948 87.2132 21.0427C84.5421 19.7295 81.6809 18.4437 81.6809 15.0407C81.6809 11.4233 84.6241 9.97639 87.949 9.97639C89.5295 9.97639 91.1101 10.2978 92.3366 10.7265L92.8815 15.1744L92.8808 15.1751Z" fill="var(--fill-0, #FEF1F1)"/>
<path id="Vector_3" d="M96.0691 35.8615C96.614 34.3606 96.7508 33.0482 96.7508 30.6362V20.8823C96.7508 19.1405 96.124 18.1488 95.4153 17.4254V17.3714L99.3121 15.8706V18.389L99.503 18.4156C100.484 17.0759 102.119 16.0043 104.272 16.0043C107.815 16.0043 110.05 18.9248 110.05 23.0247C110.05 27.1246 107.788 30.3938 102.855 30.3938C101.492 30.3938 100.348 30.1256 99.4481 29.697V30.6081C99.4481 32.9928 99.503 34.3592 100.102 35.8601V35.914H96.0684V35.8601L96.0691 35.8615ZM107.216 23.536C107.216 19.5972 105.444 17.8554 102.964 17.8554C101.22 17.8554 100.075 18.686 99.4481 19.5167V26.0818C99.9389 28.4931 101.574 29.3511 103.073 29.3511C105.471 29.3511 107.216 27.1541 107.216 23.536Z" fill="var(--fill-0, #FEF1F1)"/>
<path id="Vector_4" d="M123.048 26.537L123.484 26.8852C122.557 28.8146 120.677 30.3953 117.843 30.3953C114.055 30.3953 111.466 27.6618 111.466 23.4821C111.466 18.8731 114.627 16.0058 118.061 16.0058C121.494 16.0058 123.756 18.9536 123.402 22.0618H114.218V22.4638C114.218 26.1077 116.207 28.1444 119.205 28.1444C120.65 28.1444 122.039 27.6891 123.048 26.5363V26.537ZM114.327 21.0708L120.595 20.937V20.6422C120.595 18.2035 119.723 17.078 118.006 17.078C116.098 17.078 114.709 18.6588 114.327 21.0708Z" fill="var(--fill-0, #FEF1F1)"/>
<path id="Vector_5" d="M136.973 26.8585C136.073 28.7614 134.112 30.3953 131.196 30.3953C127.462 30.3953 124.928 27.6618 124.928 23.4555C124.928 19.2492 128.444 16.0066 132.285 16.0066C134.248 16.0066 135.447 16.4617 136.155 16.7832L136.564 20.1596L136.182 20.2668C135.337 18.8465 133.73 17.0781 131.795 17.0781C129.342 17.0781 127.68 19.1147 127.68 22.4372C127.68 26.0545 129.642 28.1444 132.667 28.1444C134.139 28.1444 135.529 27.6618 136.537 26.5097L136.973 26.8578V26.8585Z" fill="var(--fill-0, #FEF1F1)"/>
<path id="Vector_6" d="M139.289 25.7062V19.382C139.289 18.0156 138.745 17.0778 138.009 16.5147V16.4076H141.961V25.2503C141.961 27.2603 142.887 28.2779 144.55 28.2779C146.048 28.2779 147.03 27.3933 147.629 26.2146V19.382C147.629 18.0422 147.138 17.0778 146.293 16.5147V16.4076H150.299V25.4106C150.299 28.224 150.708 28.7331 151.635 29.3494V29.4033L147.765 30.3145V27.2329C146.729 28.841 145.394 30.3951 143.05 30.3951C140.57 30.3951 139.289 28.5728 139.289 25.7055V25.7062Z" fill="var(--fill-0, #FEF1F1)"/>
<path id="Vector_7" d="M153.351 29.9399C153.814 29.0827 154.033 28.091 154.033 26.0277V13.2728C154.033 11.5577 153.406 10.5933 152.697 9.92305V9.84253L156.703 8.3956V26.0004C156.703 28.0637 156.948 29.1086 157.412 29.9392V29.9931H153.351V29.9392V29.9399Z" fill="var(--fill-0, #FEF1F1)"/>
<path id="Vector_8" d="M160.437 25.7062V19.382C160.437 18.0156 159.892 17.0778 159.156 16.5147V16.4076H163.108V25.2503C163.108 27.2603 164.034 28.2779 165.697 28.2779C167.195 28.2779 168.177 27.3933 168.776 26.2146V19.382C168.776 18.0422 168.285 17.0778 167.441 16.5147V16.4076H171.446V25.4106C171.446 28.224 171.855 28.7331 172.782 29.3494V29.4033L168.912 30.3145V27.2329C167.876 28.841 166.541 30.3951 164.197 30.3951C161.717 30.3951 160.437 28.5728 160.437 25.7055V25.7062Z" fill="var(--fill-0, #FEF1F1)"/>
<path id="Vector_9" d="M174.717 29.9401C175.262 28.4392 175.399 27.0994 175.399 24.7147V20.883C175.399 19.1412 174.772 18.1496 174.063 17.4261V17.3722L177.96 15.8713V18.6048L178.096 18.6314C179.295 16.7825 180.795 16.0058 182.566 16.0058C184.61 16.0058 185.645 16.9975 185.973 18.6048L186.055 18.6314C187.335 16.7825 188.807 16.0058 190.578 16.0058C193.058 16.0058 194.121 17.5066 194.121 19.864V24.6874C194.121 27.126 194.148 28.4385 194.748 29.9393V29.9933H190.742V29.9393C191.315 28.4385 191.424 26.9915 191.424 24.714V20.4537C191.424 19.0873 190.961 17.9352 189.271 17.9352C188.208 17.9352 186.981 18.3905 186.055 19.7842V24.6881C186.055 27.1267 186.136 28.4392 186.79 29.9401V29.994H182.729V29.9401C183.302 28.4392 183.384 26.9922 183.384 24.7147V20.4545C183.384 19.088 182.948 17.9359 181.258 17.9359C180.195 17.9359 178.942 18.3646 178.097 19.731V24.6881C178.097 27.0728 178.152 28.4392 178.751 29.9401V29.994H174.717V29.9401Z" fill="var(--fill-0, #FEF1F1)"/>
<path id="Vector_10" d="M84.3572 6.80101H83.4751V0.765176H81.1983V0H86.6252V0.765176H84.3579V6.80101H84.3572Z" fill="var(--fill-0, #FEF1F1)"/>
<path id="Vector_11" d="M87.9149 0.00072684V2.58464C88.3801 1.98774 88.8065 1.77271 89.5087 1.77271C90.4763 1.77271 91.0739 2.28547 91.0739 3.10674V6.80101H90.2861V3.41454C90.2861 3.06934 90.1911 2.83634 89.9636 2.66806C89.7742 2.52782 89.5269 2.45375 89.2614 2.45375C88.4452 2.45375 87.9142 3.10674 87.9142 4.10492V6.80101H87.1265V0.00072684H87.9142H87.9149Z" fill="var(--fill-0, #FEF1F1)"/>
<path id="Vector_12" d="M92.6593 4.61827C92.6689 5.1037 92.7354 5.38345 92.9248 5.6632C93.1903 6.07386 93.6175 6.2975 94.12 6.2975C94.7555 6.2975 95.2017 5.96164 95.4196 5.31799H96.2169C96.0179 6.38161 95.2302 7.01592 94.0914 7.01592C92.6871 7.01592 91.8336 6.03645 91.8336 4.42269C91.8336 2.80889 92.7252 1.77332 94.1104 1.77332C95.04 1.77332 95.7992 2.25874 96.1218 3.06059C96.2644 3.42448 96.3207 3.87252 96.3207 4.61827H92.6586H92.6593ZM95.4672 3.98398C95.4672 3.10734 94.9076 2.49174 94.1009 2.49174C93.2942 2.49174 92.7442 3.07929 92.6776 3.98398H95.4672Z" fill="var(--fill-0, #FEF1F1)"/>
</g>
</g>
<defs>
<clipPath id="clip0_487_1625">
<rect width="114" height="36" fill="white" transform="translate(81)"/>
</clipPath>
</defs>
</svg>
