<svg width="169" height="150" viewBox="0 0 169 150" fill="none" xmlns="http://www.w3.org/2000/svg">
<path d="M60.6442 0.938646C61.3752 1.26732 62.0609 1.80566 62.5539 2.52535C63.727 4.21972 64.526 9.4785 64.4183 11.5356C64.4013 11.8699 63.7836 12.1136 64.4183 12.2552C64.0613 14.2386 63.9706 16.1767 63.6476 18.1884C62.8656 23.0958 61.3412 27.8672 60.0492 32.616C58.9555 36.6281 57.0968 41.4732 60.2589 45.1566C60.6839 45.6553 61.4942 45.967 61.7096 46.2107C62.6616 47.2704 63.88 47.7974 65.1323 48.517C73.7912 53.5208 81.821 53.1695 91.2166 49.9337C92.5539 49.4747 96.192 48.075 97.2574 47.3667C97.6597 47.1003 98.8101 45.9783 99.2464 45.593C99.5241 45.3493 101.57 43.4509 101.649 43.3036C101.745 43.1279 101.626 42.8219 101.757 42.5896C101.847 42.4366 102.306 42.2892 102.499 41.9889C102.692 41.6886 102.692 41.2125 102.76 41.1332C102.805 41.0822 103.083 41.0879 103.304 40.8612C104.33 39.8299 105.429 36.5374 106.064 35.1207C107.191 32.5877 108.285 30.3776 108.965 27.6009C110.081 23.0505 109.86 18.6984 108.636 14.2273C108.557 13.9439 107.571 13.2696 108.529 12.9352V12.7936C108.398 12.7936 108.262 12.7256 108.172 12.6292C107.418 11.8189 106.625 8.02781 106.749 6.91145C106.772 6.72444 106.953 6.58277 106.999 6.41277C107.038 6.2541 106.931 6.07276 106.982 5.93109C107.435 4.6844 110.127 4.36139 111.283 4.28772C115.476 4.03272 121.001 4.84307 124.311 7.51213C124.724 7.84647 125.104 8.47548 125.376 8.67949C125.648 8.88349 126.345 8.95149 126.572 9.2745C126.736 9.5125 126.674 9.88085 126.725 9.93751C126.781 9.99985 127.852 10.1415 128.277 10.5495C128.595 10.8555 128.549 11.2069 128.731 11.4392C128.838 11.5809 129.926 12.3176 130.289 12.7142C131.218 13.7286 132.936 16.069 133.559 17.2307C133.888 17.8484 134.103 19.0214 134.409 19.4974C134.545 19.7127 135.146 20.0357 135.276 20.2397C135.491 20.5628 135.429 20.9254 135.542 21.0954C135.61 21.2031 135.911 21.2201 136.024 21.4298C136.239 21.8321 136.166 22.6311 136.5 23.1808C137.322 24.5408 137.503 24.7562 138.143 26.3145C141.521 34.5484 143.351 44.1139 144.286 53.1185C144.445 54.6485 144.388 56.7792 144.671 58.3036C144.717 58.5359 145 58.7229 144.989 58.8986C144.989 58.9949 144.756 59.1933 144.728 59.4936C144.671 60.1396 144.966 61.2333 145 61.9133C145.368 69.8412 144.637 78.1487 143.748 86.0369C143.663 86.7679 143.725 87.6916 143.6 88.4509C143.43 89.4936 143.357 90.6043 143.209 91.7887C142.348 98.8495 140.801 108.211 142.575 115.306C142.835 116.343 142.966 116.196 143 117.306C143 117.414 143.379 117.697 143.481 117.975C143.549 118.162 143.464 118.44 143.521 118.661C143.946 120.213 144.824 121.403 145.255 122.899C145.742 124.594 147.646 126.498 148.4 128.118C148.508 128.345 148.338 128.583 148.4 128.714C148.462 128.855 150.344 130.538 150.571 130.895C150.797 131.252 150.423 131.094 150.928 131.683C151.721 132.607 152.531 133.406 153.296 134.38C153.404 134.516 153.359 134.805 153.54 135.032C154.056 135.678 155.359 136.262 155.852 136.891C156.09 137.197 156.203 137.707 156.453 137.933C156.668 138.126 157.269 138.381 157.671 138.681C159.694 140.183 161.507 141.996 163.377 143.521C164.891 144.751 167.809 146.133 168.376 148.071C168.665 149.063 166.789 149.284 166.103 149.392C163.281 149.839 159.28 149.125 156.549 148.258C154.039 147.459 152.679 145.935 150.542 144.581C149.738 144.071 149.035 143.425 148.207 142.852C147.176 142.132 145.759 141.305 144.847 140.483C144.683 140.336 144.756 140.075 144.513 139.888C144.144 139.605 143.731 139.922 144.156 138.987C143.221 138.721 142.393 138.46 141.861 137.627C141.135 136.494 140.79 136.415 139.945 135.559C138.795 134.397 137.849 132.907 137.01 131.598C136.534 130.856 136.103 130.13 135.656 129.53C134.59 128.102 133.706 126.231 132.833 124.605C125.444 110.818 130.487 94.5031 131.91 79.7524C133.474 63.4887 132.924 46.613 128.306 30.814C128.011 29.794 127.762 28.7456 127.507 27.8616C127.155 26.6262 126.084 25.1699 125.733 23.8438C125.688 23.6625 125.863 23.4188 125.733 23.0901C125.659 22.9031 125.098 22.6141 124.872 22.1438C124.764 21.9171 124.815 21.6394 124.707 21.4128C123.721 19.3897 122.514 17.2703 121.154 15.3493C121.007 15.1396 120.406 14.76 120.304 14.59C120.032 14.1366 120.514 14.4596 119.789 13.6663C119.624 13.4906 118.502 12.0342 118.383 12.1646C118.321 12.4876 118.701 12.6236 118.752 12.8899C118.933 13.7513 118.984 13.9213 119.256 14.777C121.698 22.3761 119.267 30.4286 116.371 37.2005C115.714 38.7418 114.87 40.5892 113.912 41.9039C113.362 42.6576 112.852 43.5303 112.127 44.284C111.759 44.6693 110.863 45.202 110.62 45.6156C110.506 45.8083 110.637 46.0067 110.557 46.1313C110.438 46.3183 107.446 48.9874 107.237 49.0724C105.525 49.7694 103.825 50.8858 101.989 51.5714C87.9752 56.8359 69.6544 57.4422 56.2978 50.0357C55.8785 49.8034 53.4531 48.3414 53.2661 48.143C53.1301 47.9957 53.1584 47.7237 53.0847 47.6614C52.9997 47.5877 52.246 47.4914 51.9797 47.276C48.506 44.5163 48.1943 40.5835 48.9876 36.4128C49.6903 32.7294 51.2544 29.1309 52.2744 25.5722C53.3964 21.6734 54.4674 17.5537 54.8981 13.5983C54.9094 13.4963 55.1758 13.5189 55.2041 13.4056C55.6121 11.7112 55.7368 5.74409 55.3118 4.08372C55.2608 3.87971 54.7564 2.63302 54.6771 2.62168C54.2238 2.87669 52.042 3.18836 51.957 3.60771L52.0704 4.09505C51.4527 4.61073 50.631 4.53706 49.9907 4.78073C48.7326 5.25674 45.7236 10.0508 44.8339 11.3995C42.3915 15.117 40.5215 18.7154 38.7421 22.8918C37.9261 24.8072 36.991 26.8586 36.3564 28.8533C32.877 39.7902 33.2113 53.2148 33.5286 64.7581C33.6873 70.5609 33.9876 76.4317 33.1433 82.4101C33.0073 83.3735 31.7493 90.6157 31.4773 90.9613C30.5762 92.1174 28.8025 98.8948 27.9695 101.071C26.6095 104.613 25.1871 108.205 23.1187 111.566C22.3027 112.892 21.1977 115.119 20.2853 116.179C18.9933 117.68 17.9676 119.301 16.7209 120.882C15.6952 122.185 14.4655 123.319 13.3435 124.588C12.3292 125.733 11.5188 127.155 10.2098 128.152C9.98311 128.328 9.45043 128.458 9.35976 128.572C9.23509 128.725 9.3031 129.082 9.13309 129.241C7.87506 130.448 4.05565 130.062 2.46895 129.654C1.39792 129.377 -1.09547 128.861 0.542236 127.574C1.59059 126.758 2.54261 125.602 3.43797 124.514C5.17767 122.406 6.67371 120.236 8.14707 118.049C8.82709 117.04 9.59777 116.275 10.2948 115.136C11.1108 113.81 12.1138 112.557 12.7315 111.282C18.625 99.2122 23.5324 85.0792 23.4587 71.2409C23.4531 70.0509 23.0961 68.1808 23.1811 67.0588C23.1981 66.8321 23.4701 66.6791 23.4417 66.5034C22.9601 63.5397 23.1244 60.1906 23.1697 57.0796C23.2604 51.0671 23.4474 45.0093 24.5468 39.1045C26.1845 30.3096 29.5335 22.8975 34.2823 15.4513C36.6794 11.6886 41.1618 5.59675 45.0209 3.09769C49.0386 0.490969 56.1788 -1.09573 60.6499 0.898978L60.6442 0.938646Z" fill="#FEF1F1"/>
<path d="M69.7394 64.2538C71.3941 66.4695 72.8845 70.4022 72.8731 73.2866C72.8731 73.6153 72.7031 73.808 72.6238 74.1083L73.0545 74.352C72.7938 75.0094 72.9411 75.7914 72.8788 76.4544C72.7258 78.0411 72.3065 80.0245 71.5924 81.4242C68.64 87.1873 63.5286 88.4453 57.1081 87.4083C52.2517 86.6206 44.2558 83.0165 45.1002 76.9927C45.5139 74.0403 48.4946 67.3875 50.8916 65.6365C55.3967 62.3441 64.934 65.6251 65.886 71.3203C66.5037 74.9924 63.0583 80.7271 59.1255 81.0218C55.8954 81.2655 51.6737 78.3244 52.2857 74.777C52.6314 72.7653 55.1701 69.7676 57.3348 71.0823C58.3775 71.7169 57.8051 72.8163 56.7738 72.6973C56.1674 72.6293 56.2864 72.1023 55.6461 72.7766C54.4164 74.0743 54.5354 76.2617 55.4931 77.6897C55.9238 78.3301 57.7088 79.8261 58.4738 79.6391C59.7885 79.3161 61.3809 76.9757 61.9306 75.78C62.6842 74.1253 63.0526 71.8813 62.2819 70.1642C62.2592 70.1132 61.7832 69.3596 61.7152 69.2576C60.2192 67.0815 56.4564 64.7298 53.9347 66.5885C52.229 67.8465 50.019 72.567 49.3276 74.624C49.0329 75.4967 48.6136 77.3044 48.6646 78.4151C48.8346 82.0985 53.589 84.8242 56.8078 85.6176C60.0265 86.4109 62.4236 86.3203 64.883 83.7872C65.07 83.5945 65.138 83.5379 65.342 83.3282C66.2713 82.3762 67.4273 79.5881 67.552 78.2678C67.8467 75.151 67.739 71.904 66.7417 68.8269C66.1977 67.1438 64.7696 64.5598 63.4719 63.3074C63.2793 63.1204 61.7096 61.8057 61.5962 61.7547C61.1202 61.5224 58.7288 61.4827 58.7968 60.729C58.9328 59.2273 63.1263 59.8734 64.1066 60.1397C64.6506 60.287 65.41 60.6044 65.9086 60.8707C66.838 61.3637 69.1161 63.4151 69.7451 64.2594L69.7394 64.2538Z" fill="#FEF1F1"/>
<path d="M102.204 66.7982C107.083 71.5924 107.758 82.1042 100.476 84.9886C93.2449 87.8504 85.2094 83.8326 83.9004 76.0974C82.529 67.9996 91.3126 65.0245 97.546 68.5549C100.487 70.221 102.527 75.1794 99.9431 77.8995C97.9767 79.9679 92.8086 80.6195 90.5759 78.6588C89.4935 77.7068 88.6662 75.6384 89.2952 74.2614C89.7145 73.3377 91.6526 73.4001 92.4233 73.8307C93.1429 74.2331 92.6329 74.5901 92.6046 75.1794C92.5706 75.9331 93.5056 78.0582 94.2933 78.1488C94.8033 78.2055 96.2087 77.4575 96.5374 77.0268C97.5687 75.6781 97.3534 73.5814 96.8717 72.057C95.0187 66.1919 86.7111 68.1866 86.7565 74.7091C86.7905 79.2482 91.1652 85.068 96.1917 84.4333C104.08 83.4359 104.692 72.9354 100.402 67.7786C98.3394 65.3022 95.1377 64.3219 92.3496 62.8655C91.5959 64.5372 88.2468 62.0041 90.7516 61.5565C92.4629 61.2505 97.7104 63.8402 99.3821 64.7752C100.368 65.3249 101.394 66.0106 102.198 66.8039L102.204 66.7982Z" fill="#FEF1F1"/>
</svg>
