<svg preserveAspectRatio="none" width="100%" height="100%" overflow="visible" style="display: block;" viewBox="0 0 13.1335 17.4192" fill="none" xmlns="http://www.w3.org/2000/svg">
<g id="Group">
<path id="Vector" d="M3.81693 14.4549C3.75 14.2314 3.77595 14.2703 3.65438 14.0811C3.57174 13.9519 3.64755 14.0145 3.53827 13.8945C3.50754 13.8609 3.47134 13.8266 3.44675 13.795C3.43036 13.7732 3.43856 13.7356 3.39007 13.7238V13.6677C3.38529 13.6671 3.36275 13.6631 3.3607 13.6677L3.34567 13.7033L3.29445 13.588C3.2924 13.5833 3.28762 13.5616 3.28694 13.557C3.28694 13.553 3.29855 13.5537 3.30264 13.557L3.33065 13.5754C3.3245 13.5181 3.29786 13.4653 3.26098 13.4093L3.26303 13.3322C3.26303 13.3243 3.2282 13.313 3.2323 13.3051L3.25347 13.261L3.15717 13.2649L3.19405 13.2062C3.16946 13.2016 3.1681 13.1403 3.15102 13.1219C3.08546 13.0493 3.00145 12.9623 2.94954 12.8832C2.9434 12.874 2.90993 12.8634 2.91061 12.8549L2.91471 12.8008C2.91539 12.7916 2.87305 12.7982 2.87032 12.7889L2.85392 12.7382L2.8109 12.7837C2.80543 12.6802 2.77197 12.6083 2.73099 12.5186L2.69547 12.4409L2.64083 12.3275C2.61761 12.2793 2.59849 12.2378 2.54248 12.2128L2.54931 12.1534C2.46736 12.1402 2.39633 12.0901 2.41955 12.0268C2.37993 12.017 2.34374 11.9919 2.32325 11.9523C2.29456 11.8976 2.24197 11.9748 2.14431 11.8007L2.21807 11.7968C2.14362 11.6979 2.15865 11.6537 2.08967 11.5291L2.00976 11.3841C1.98859 11.3755 1.93941 11.3577 1.94214 11.3425L1.95922 11.2628L1.91551 11.2753C1.90526 11.2779 1.8916 11.2463 1.8916 11.2357C1.88341 11.0887 1.81443 11.0953 1.75842 10.9536C1.74476 10.9661 1.72291 10.9918 1.71813 10.9852L1.6949 10.9516L1.61773 10.8342C1.61158 10.8237 1.60407 10.8145 1.60953 10.8112L1.65051 10.7868C1.58153 10.7973 1.59587 10.7301 1.5706 10.7116C1.49752 10.6589 1.44903 10.6035 1.44152 10.5178L1.36844 10.4077C1.35341 10.3846 1.31585 10.351 1.32609 10.3293C1.34522 10.2884 1.32268 10.2554 1.28238 10.2337L1.28716 10.1816L1.07134 9.90074C0.933378 10.0135 1.06929 9.84734 0.942257 9.71879C0.936793 9.71351 0.93611 9.68253 0.927914 9.68187L0.886935 9.67923C0.891716 9.64693 0.874642 9.62056 0.85142 9.59089C0.817954 9.54672 0.81932 9.50717 0.733264 9.4953L0.786537 9.42344L0.710726 9.43531C0.76195 9.37531 0.705945 9.31928 0.67726 9.26588C0.661551 9.23687 0.647209 9.19731 0.623987 9.16435L0.557055 9.07074C0.552274 9.06349 0.5673 9.0292 0.557055 9.02723L0.512661 9.01866L0.492855 8.94021C0.502416 8.92702 0.497635 8.93361 0.477829 8.96196L0.451193 8.90724C0.421824 8.88483 0.389724 8.85582 0.375382 8.82088L0.323475 8.68837C0.32006 8.67914 0.289326 8.66595 0.281813 8.6587C0.272251 8.65013 0.285228 8.61915 0.280447 8.60728C0.253128 8.53938 0.19644 8.45367 0.181415 8.38182L0.163657 8.29545C0.151363 8.23744 0.143851 8.17547 0.137021 8.11416L0.116531 7.9388C0.113116 7.90715 0.0523309 7.87155 0.0864801 7.82475C0.148631 7.73904 0.0448181 7.7041 0.0455011 7.53599L0.0468671 7.29075C0.0468671 7.1589 0.0420862 7.02902 0.0338904 6.89651C0.0256946 6.7706 0.0373053 6.77851 0.0263776 6.66973L0.00110725 6.41987C-0.00435661 6.36713 0.012035 6.30318 0.0147669 6.24846L0.0277436 5.99597L0.0393543 5.79226C0.048233 5.64129 0.0728204 5.58657 0.0810162 5.49098L0.104238 5.2286L0.12541 5.10993C0.17117 4.84952 0.195074 4.59703 0.298205 4.34783L0.334403 4.25949C0.460071 3.95491 0.549542 4.00765 0.567983 3.80131L0.5994 3.82636C0.604181 3.83032 0.625353 3.81317 0.621255 3.8079L0.5994 3.78021L0.640379 3.76571C0.656087 3.76043 0.589155 3.73538 0.609645 3.7189L0.632866 3.69978C0.63833 3.69517 0.649941 3.71297 0.662917 3.72352L0.703896 3.63254C0.765365 3.49475 0.730533 3.52112 0.783805 3.45388C0.822052 3.29236 0.883521 3.28313 0.983236 3.09854C1.04744 2.97988 1.12461 2.85594 1.20657 2.7498C1.30492 2.77814 1.22843 2.68189 1.41693 2.69508C1.68602 2.4762 1.44903 2.5507 1.7031 2.31337L1.86019 2.16635C1.90868 2.12087 1.93805 2.08065 1.97766 2.02198C2.00429 1.98242 2.05893 1.93364 2.09308 1.89013L2.29046 1.64027C2.33554 1.58291 2.37925 1.53215 2.41818 1.46952L2.4735 1.38184C2.48511 1.36338 2.51653 1.3258 2.53429 1.3113C2.68523 1.18406 2.62922 1.20977 2.75284 1.09902C2.85597 1.10627 3.04311 0.925635 3.06906 0.906516L3.29581 0.741043L3.38255 0.667866C3.41465 0.640836 3.45085 0.61974 3.4891 0.595348L3.76639 0.421304L3.90435 0.387682C4.21033 0.313186 4.18916 0.253853 4.38722 0.222209L4.59485 0.188587C4.65017 0.180017 4.70208 0.176721 4.75466 0.166172L4.90697 0.134528C4.98415 0.118706 5.05449 0.0989283 5.13918 0.100906C5.1426 0.0982691 5.15489 0.090358 5.15353 0.0916765L5.12279 0.0712396C5.09957 0.0560767 5.34066 0.0666248 5.41648 0.0547582L5.61864 0.0224547C5.64459 0.0184992 5.70196 0.00267702 5.73133 0.00267702L6.95387 3.99987e-05C7.17857 -0.000619257 7.05905 0.00663256 7.29126 0.0395953L7.42376 0.0587137C7.49752 0.0692618 7.59792 0.0534397 7.66827 0.0705804C7.75227 0.0910173 7.81238 0.104862 7.89843 0.109476C7.93531 0.111454 8.14772 0.15035 8.28022 0.162876L8.46053 0.180017C8.50834 0.184632 8.56229 0.205728 8.606 0.214298C8.71528 0.235394 8.81636 0.254513 8.92496 0.28352C9.1278 0.337579 9.0274 0.279564 9.3204 0.34549C9.38802 0.360653 9.53759 0.346149 9.75888 0.433171C9.76502 0.435808 9.78073 0.457563 9.78688 0.454267L9.81966 0.435808C9.89274 0.46943 9.98153 0.514259 10.0655 0.534696L10.2028 0.568318C10.265 0.583481 10.2978 0.605237 10.3353 0.647429L10.4378 0.76148C10.4699 0.797739 10.5225 0.804332 10.5764 0.810924C10.7547 0.832021 10.6693 0.858391 10.9124 0.897287C11.077 0.923657 11.1146 1.041 11.1993 1.0443C11.2922 1.04826 11.3168 1.08583 11.3796 1.12341C11.4998 1.19461 11.6139 1.21769 11.8119 1.33174L11.913 1.38975L11.9984 1.43656C12.0059 1.44051 12.0441 1.44381 12.0421 1.45106L12.0291 1.49853C12.0995 1.5038 12.1234 1.55786 12.1643 1.59676C12.2224 1.65148 12.2695 1.69894 12.2968 1.77476L12.4382 1.91386C12.5086 1.98308 12.5762 2.04505 12.5905 2.14658C12.5974 2.19668 12.6417 2.22239 12.6752 2.25931C12.7312 2.31996 12.7988 2.50587 12.8248 2.59619C12.8658 2.73595 13.0317 2.99042 13.0625 3.20732L13.1116 3.55277C13.1205 3.61672 13.128 3.68198 13.128 3.74725L13.1335 4.74075L13.1144 4.79942C13.1301 4.75195 13.1021 5.26617 13.0823 5.39802C13.0734 5.4567 13.0789 5.53119 13.0782 5.61228V5.73227C13.0768 5.83511 13.042 6.18452 13.0222 6.27879L12.9033 6.85037L12.8309 7.14176C12.8009 7.26372 12.7872 7.38436 12.751 7.50303C12.7394 7.54061 12.7271 7.57555 12.7182 7.61312L12.6732 7.79903C12.6308 7.97176 12.5564 8.13328 12.4997 8.30534L12.2941 8.92768C12.2873 8.94746 12.1882 9.19138 12.1841 9.19731L12.0243 9.46102C11.9827 9.52958 11.9424 9.60342 11.9123 9.67594L11.8686 9.78208L11.6985 10.1493C11.6794 10.1908 11.6371 10.2337 11.6159 10.2719C11.6193 10.266 11.4902 10.5066 11.4793 10.4664L11.4062 10.6009L11.3345 10.6965L11.2287 10.8731L11.1385 11.0261L11.0203 11.2166C11.0005 11.2483 10.9719 11.2858 10.9493 11.3181C10.8878 11.4025 10.8373 11.4836 10.7827 11.5739C10.739 11.6458 10.6563 11.7097 10.6256 11.7882C10.5969 11.862 10.5648 11.928 10.5122 11.9886L10.405 12.1139C10.3012 12.2352 10.3223 12.3228 10.181 12.4395C10.0485 12.5496 9.8784 13.0025 9.76434 13.1555L9.63799 13.3243C9.61818 13.3506 9.59974 13.3724 9.57516 13.3948C9.26372 13.6737 9.28762 13.6901 9.11278 14.0283L9.03355 14.1819L8.9714 14.2492C8.94749 14.2749 8.93247 14.3013 8.90925 14.327L8.80748 14.4404C8.75558 14.4984 8.7064 14.5557 8.64357 14.6078L8.55478 14.681C8.50356 14.7239 8.46189 14.7898 8.41818 14.8419L8.25495 15.037L8.1286 15.1814L8.02615 15.3192L7.91414 15.4497L7.72154 15.6442L7.63412 15.745L7.49206 15.898L7.42171 15.9738C7.39917 15.9982 7.37459 16.0331 7.35341 16.0615L7.29194 16.1432L7.17857 16.3225L6.89377 16.6555L6.75034 16.8124L6.64448 16.935L6.54544 17.049C6.47578 17.1295 6.39109 17.2027 6.30572 17.2758L6.178 17.3853C6.10629 17.4466 6.02979 17.4064 5.95125 17.405L5.44038 17.3958C5.3632 17.3945 5.25939 17.351 5.20748 17.3048C5.15899 17.262 5.15353 17.1796 5.06064 17.1809L5.05245 17.1585L5.04425 17.1354L5.03605 17.113C5.02854 17.0919 5.03605 17.0998 5.00122 17.084C4.99712 17.082 5.00259 17.0781 5.01283 17.0695L5.02991 17.0556L5.00873 17.0392C5.00873 17.0392 5.0019 17.026 5.00054 17.022L4.99166 16.9989L4.98278 16.9765L4.97459 16.9541L4.96639 16.9337C4.96639 16.9337 4.95136 16.9436 4.95068 16.9469L4.94727 16.9686L4.94317 16.9976C4.94249 17.0022 4.93634 17.0036 4.93361 16.9996L4.91175 16.9699C4.76901 16.7728 4.87145 16.8269 4.79496 16.7082L4.80862 16.6436C4.80999 16.6357 4.81818 16.6139 4.81067 16.6166L4.76423 16.6311C4.74032 16.639 4.72735 16.5869 4.73691 16.5566C4.74715 16.5236 4.71437 16.5085 4.6891 16.4808C4.66519 16.4551 4.61739 16.2626 4.60031 16.2276C4.56958 16.1624 4.49718 16.1083 4.45757 16.047C4.31278 15.8248 4.44254 16.047 4.35102 15.834L4.29092 15.6936C4.25745 15.6158 4.25131 15.5229 4.21169 15.449C4.17208 15.3752 4.13725 15.304 4.10993 15.2308C4.08534 15.1649 3.98904 15.1036 4.02251 14.9348C4.03412 14.8748 3.86747 14.8194 3.9105 14.7819L3.96855 14.8194L3.93918 14.7621L3.91938 14.6672C3.88455 14.6309 3.82854 14.4971 3.81556 14.4536L3.81693 14.4549ZM6.93201 15.3541L7.11983 15.1636C7.18813 15.0944 7.13418 15.0884 7.22638 14.9335C7.2414 14.9078 7.31721 14.9078 7.28307 14.8623L7.30356 14.8419C7.36161 14.8346 7.36776 14.7931 7.39712 14.7628L7.48591 14.6685C7.49684 14.6573 7.5064 14.6401 7.51665 14.6408L7.56377 14.6454C7.57333 14.5966 7.5706 14.5274 7.60134 14.4885C7.66758 14.4041 7.73247 14.3349 7.80418 14.2584C7.83218 14.2288 7.83833 14.1879 7.89912 14.1819L7.84243 14.2855C7.88341 14.2802 7.91346 14.2558 7.93941 14.2261L8.08216 14.0639C8.09718 14.0475 8.10264 14.0007 8.12382 13.9894C8.1484 13.9769 8.17914 13.9598 8.17641 13.9466L8.1648 13.8873C8.15523 13.8405 8.26793 13.8708 8.33964 13.7462C8.36423 13.6868 8.39223 13.6242 8.42228 13.5675L8.60259 13.2267C8.6463 13.1436 8.76924 12.9551 8.8628 12.9129L9.00623 12.8483L9.02809 12.7718C9.10526 12.7257 9.16195 12.6169 9.19064 12.5556L9.28694 12.3453C9.30879 12.2978 9.34362 12.2497 9.37026 12.2015L9.46041 12.0361C9.50208 11.9596 9.55671 11.8825 9.6134 11.8132C9.69194 11.7163 9.70356 11.6583 9.72336 11.6333L9.86474 11.4553C9.9105 11.3979 9.94875 11.3537 9.98085 11.2891C10.017 11.2166 10.071 11.1507 10.1209 11.0815C10.1618 11.0248 10.196 10.945 10.2677 10.9681C10.2711 10.9694 10.2677 10.9628 10.265 10.9569L10.2534 10.9378C10.3066 10.9002 10.3886 10.6813 10.4227 10.6272C10.5033 10.5013 10.6044 10.3774 10.6713 10.2468C10.6905 10.2093 10.7547 10.1664 10.7567 10.1631C10.8236 9.99238 10.9227 9.82756 11.0361 9.66868C11.0934 9.58759 11.1303 9.49794 11.1733 9.4096C11.2375 9.2784 11.2942 9.15183 11.3434 9.01536C11.3598 8.96921 11.3994 8.9257 11.4404 8.89933C11.4499 8.79978 11.5182 8.79978 11.566 8.65211L11.6712 8.32908L11.801 7.96912L11.8754 7.75552C11.9185 7.6329 11.9588 7.51555 11.9874 7.39095L12.1145 6.83916L12.1575 6.64138C12.1691 6.586 12.163 6.5214 12.1678 6.46075C12.1725 6.40009 12.2115 6.32692 12.2046 6.26824C12.1978 6.20957 12.2046 6.1687 12.2395 6.12914C12.2299 5.99267 12.2688 6.11464 12.247 5.90697C12.2415 5.85225 12.232 5.80215 12.2197 5.74018C12.2122 5.70128 12.2524 5.63338 12.2531 5.58657L12.2613 5.27936C12.2627 5.22728 12.193 5.18509 12.26 5.12443C12.3009 5.08752 12.2798 4.98665 12.2866 4.93193L12.303 4.79612C12.3091 4.7447 12.2948 4.69196 12.2927 4.64186C12.2873 4.50539 12.2764 4.47375 12.2729 4.33135C12.2695 4.18895 12.2251 4.19752 12.2941 4.15467C12.2873 4.14478 12.2606 4.11643 12.2702 4.10522L12.3153 4.05446C12.318 4.05117 12.3132 4.02809 12.3085 4.03007L12.2804 4.0393C12.2716 4.04194 12.2518 4.02677 12.2443 4.02018C12.2388 4.01623 12.2531 4.00765 12.2682 3.99777C12.275 3.99315 12.2654 3.9826 12.2477 3.96744C12.2367 3.95755 12.2688 3.9292 12.2702 3.91536L12.2893 3.72945L12.2374 3.61803C12.234 3.61144 12.2217 3.59298 12.2176 3.58705C12.2135 3.58112 12.2442 3.56661 12.2565 3.5587C12.2477 3.47102 12.1978 3.37807 12.1561 3.29302L12.0612 3.09854L12.0025 2.95746C11.941 2.81111 11.872 2.66409 11.7798 2.52499L11.7464 2.54147C11.7402 2.54477 11.7272 2.52301 11.7265 2.51708C11.7218 2.40303 11.6453 2.43863 11.6658 2.38061L11.674 2.35886C11.6528 2.41819 11.4943 2.12284 11.4035 2.05428C11.2608 1.94616 11.424 2.01275 11.1761 1.8453L11.0524 1.76157C10.8353 1.61456 10.9459 1.7319 10.7758 1.62576C10.3497 1.36008 10.5853 1.40821 10.0369 1.26186C9.74522 1.18406 9.87089 1.14517 9.57447 1.03837C9.26918 0.928931 9.40577 0.921679 9.07931 0.851139L8.7747 0.785213C8.67498 0.763458 8.57459 0.739725 8.47487 0.72588C8.42706 0.719288 8.37994 0.717969 8.33759 0.70874C8.25973 0.691599 8.18597 0.675118 8.10606 0.66457C7.84311 0.62897 8.00361 0.681051 7.84175 0.652044C7.66485 0.6204 7.49616 0.578866 7.31858 0.562385L7.11369 0.543267C7.02422 0.534696 6.91835 0.547881 6.8323 0.532719C6.74214 0.516896 6.67658 0.520193 6.58642 0.5314C6.4471 0.548541 6.22581 0.543267 6.0817 0.514259L6.00657 0.499756C5.99701 0.530741 5.99155 0.55777 5.97857 0.569637C5.96764 0.579526 5.92393 0.578866 5.90412 0.581503L5.71426 0.606555C5.48272 0.636881 5.54556 0.595348 5.46565 0.665888C5.40213 0.721925 5.24368 0.630288 5.10025 0.667866L4.96912 0.716651C4.91175 0.738406 4.88716 0.748295 4.82091 0.730495C4.78198 0.719947 4.71027 0.763458 4.66998 0.775984C4.63378 0.787191 4.59143 0.798399 4.57572 0.819495C4.53884 0.870917 4.48694 0.87685 4.42137 0.861687L4.3961 0.855754C4.37356 0.85048 4.42478 0.906516 4.31619 0.93882L4.16457 0.983649C4.15842 1.05023 4.10856 1.09243 4.02251 1.09638L3.89206 1.20252C3.83127 1.25197 3.79917 1.26449 3.71721 1.32844C3.67419 1.36206 3.58267 1.37525 3.54237 1.41217C3.51164 1.44842 3.4891 1.46622 3.43036 1.47018C3.40031 1.59016 3.41397 1.58885 3.25142 1.66268C3.1961 1.68773 3.13053 1.70092 3.0875 1.73454L2.98233 1.81695C2.96525 1.88353 2.94544 1.94418 2.88807 1.99363C2.56502 2.27315 2.72143 2.18547 2.47965 2.494L2.33417 2.67925C2.31027 2.70958 2.27066 2.75045 2.24061 2.77419C2.18665 2.8177 2.1648 2.86516 2.12655 2.91065L1.98381 3.0814C1.9681 3.10052 1.82604 3.30027 1.82194 3.30884L1.76867 3.42224L1.65871 3.69846C1.61773 3.80131 1.44903 4.03205 1.43196 4.09665C1.41488 4.16126 1.37663 4.20741 1.35068 4.26345L1.28716 4.39793C1.2496 4.47705 1.23321 4.56736 1.19155 4.64581C1.13622 4.74866 1.05153 4.91479 1.02831 5.01763L0.972991 5.25958C0.963429 5.30243 0.955234 5.3532 0.949087 5.39868L0.927231 5.56943C0.894448 5.8272 0.855518 5.76193 0.89718 5.98806L0.94294 6.23792C0.967527 6.37175 0.992798 6.50162 1.02353 6.63347L1.0529 6.76071L1.13008 7.08968C1.1574 7.20702 1.1895 7.31844 1.24004 7.43051C1.33497 7.64213 1.40259 7.84914 1.46064 8.06999L1.64231 8.75693C1.66622 8.84857 1.7311 8.92966 1.76525 9.02063C1.77686 9.05162 1.8076 9.08788 1.82126 9.11359C1.85677 9.18017 1.86633 9.24017 1.95512 9.27445C2.00361 9.29291 1.97219 9.36015 1.9879 9.39311C2.07259 9.57705 2.18597 9.74516 2.29251 9.92052C2.32803 9.97853 2.35808 10.0273 2.40725 10.0807C2.46053 10.1374 2.51448 10.2119 2.54522 10.2792C2.6381 10.4796 2.68796 10.5284 2.78221 10.7143C2.83548 10.8204 2.88398 10.9186 2.94613 11.0208C2.9714 11.063 3.00896 11.094 3.03765 11.1316L3.24391 11.3979C3.31699 11.4922 3.37163 11.5706 3.42968 11.6708L3.54579 11.8706L3.62843 12.04C3.65984 12.1053 3.71175 12.1699 3.75751 12.2292L3.89069 12.4013C3.92143 12.4409 3.93235 12.5048 3.95558 12.5556C4.00475 12.6617 4.07441 12.7606 4.13315 12.8667C4.15842 12.9129 4.17618 12.9702 4.20623 13.017C4.27521 13.1245 4.34556 13.2221 4.42274 13.3262C4.49513 13.4245 4.52518 13.5412 4.57777 13.6519L4.62763 13.7561L4.6891 13.9097C4.74169 14.0422 4.73964 14 4.79086 14.1239C4.80657 14.1615 4.78881 14.2228 4.82091 14.2538C4.90629 14.3369 4.84277 14.3105 4.90697 14.5083C4.92541 14.567 4.94248 14.6085 4.98824 14.6586C5.03196 14.7522 5.00669 14.7258 5.05245 14.8537C5.06474 14.888 5.05791 14.9546 5.08045 14.9836C5.11255 15.0232 5.12621 15.0482 5.14055 15.0911L5.22934 15.3495C5.24027 15.3825 5.29081 15.4326 5.31334 15.4649C5.32905 15.4879 5.33247 15.5202 5.34203 15.5413L5.4274 15.7246L5.51482 15.9211C5.58176 16.0707 5.67328 16.2415 5.75455 16.3786L5.77777 16.3595C5.77777 16.3595 5.78392 16.3575 5.78529 16.3614L5.79826 16.3931L5.82012 16.3516C5.84266 16.3885 5.87817 16.4346 5.90208 16.4524C5.94101 16.3937 5.9533 16.3773 5.99086 16.3463C6.17527 16.196 6.08375 16.2177 6.18961 16.1169L6.44573 15.8729C6.52222 15.8004 6.55979 15.6943 6.60964 15.6066L6.68751 15.4682C6.71892 15.4134 6.77629 15.3673 6.83571 15.3099L6.78995 15.486C6.85962 15.455 6.88489 15.3996 6.93065 15.3528L6.93201 15.3541ZM9.75819 11.6919C9.85654 11.6491 9.88455 11.5772 9.89547 11.506L9.84015 11.57C9.80395 11.6069 9.76502 11.6465 9.75819 11.6919Z" fill="var(--fill-0, white)"/>
<path id="Vector_2" d="M9.75689 11.6916C9.76441 11.6468 9.80265 11.6066 9.83885 11.5697L9.89417 11.5057C9.88256 11.5763 9.85524 11.6488 9.75689 11.6916Z" fill="var(--fill-0, white)"/>
<path id="Vector_3" d="M3.54372 2.5874L3.71446 2.49115C3.78891 2.44895 3.85721 2.41072 3.92824 2.36523C4.06825 2.27557 3.96443 2.31842 4.20689 2.17668C4.35373 2.09098 4.52721 2.06263 4.70069 2.03758L4.71845 2.14108C4.43159 2.42192 4.38515 2.43445 4.16591 2.76737L4.01361 2.99877C3.91799 3.14447 3.83603 3.28753 3.77866 3.44772L3.64138 3.83009C3.57582 4.01205 3.55055 4.18873 3.53689 4.37859L3.52732 4.51045L3.5164 4.65482C3.49113 4.995 3.53484 5.38396 3.66734 5.70633C3.72266 5.84148 3.80666 5.96015 3.89135 6.08343L4.15635 6.46777C4.30183 6.67874 4.4753 6.85805 4.69044 7.02551L4.95407 7.22987C5.13302 7.36898 5.50388 7.61158 5.72789 7.69267C6.10695 7.83046 6.50035 7.89045 6.91492 7.91089C7.25163 7.92803 7.58629 7.88386 7.90456 7.79156C8.10058 7.73421 8.26039 7.63927 8.39494 7.51335L8.81156 7.12308C9.00348 6.9431 9.18447 6.77828 9.30741 6.55941C9.37229 6.44404 9.43649 6.33395 9.48976 6.21264L9.67075 5.79731L9.85447 5.41033C9.97536 5.15586 10.0348 4.89281 10.0723 4.6212L10.1161 4.29948L10.1345 4.0905C10.1618 3.77801 10.0614 3.46487 9.85584 3.20314C9.73973 3.05481 9.4201 2.90714 9.22476 2.82539C8.85527 2.67046 8.7699 2.71331 8.33347 2.72254L7.80416 2.73375C7.49409 2.74034 7.19221 2.83528 6.9074 2.93614L6.48191 3.08645C6.32141 3.14315 6.19642 3.23083 6.11514 3.36202C5.99357 3.55914 5.76682 4.01534 5.81258 4.22828C5.84946 4.40101 5.88088 4.56846 5.95328 4.73196C5.98948 4.81304 6.0489 4.88688 6.10353 4.96335C6.14042 5.01478 6.21486 5.05697 6.27565 5.09455C6.45595 5.20728 6.90194 5.20596 7.03717 5.11235C7.1164 5.05763 7.28851 4.74316 7.20792 4.6713C7.16899 4.6568 7.09932 4.61856 7.06176 4.61131C6.9156 4.5823 6.73393 4.70229 6.46688 4.63307C6.402 4.52297 6.27291 4.18807 6.30638 4.08061C6.34599 3.95469 6.40473 3.83537 6.47098 3.72132C6.53381 3.61386 6.64787 3.5565 6.78174 3.52815C7.13006 3.45432 7.13279 3.4207 7.53507 3.36202C7.88817 3.3106 7.9633 3.37587 8.18322 3.38114L8.55954 3.38971C8.86073 3.3963 9.01509 3.50442 9.25072 3.63693C9.28009 3.73186 9.33814 3.83141 9.32994 3.9336C9.30741 4.21774 9.24799 4.49001 9.16193 4.7636C9.11071 4.92644 9.03285 5.07279 8.93245 5.21783C8.83205 5.36286 8.74873 5.51185 8.66608 5.6681C8.47075 6.0386 8.45436 6.04651 8.0835 6.31483C7.9271 6.42756 7.7987 6.55743 7.61702 6.6939C7.39642 6.85937 7.26324 6.83762 6.97092 6.81916C6.63011 6.7974 6.2934 6.75785 5.97787 6.64775C5.816 6.59106 5.6917 6.48162 5.56193 6.38998C5.10365 6.06563 5.18424 6.17572 4.84138 5.74787C4.77172 5.66085 4.68771 5.58305 4.63444 5.48812C4.40905 5.09059 4.42408 4.57769 4.44184 4.14654C4.44594 4.0371 4.4876 3.93096 4.51082 3.82482L4.60234 3.4029C4.62898 3.28093 4.68361 3.16688 4.72664 3.04888C4.78538 2.8867 4.88646 2.75023 4.97935 2.60124L5.23478 2.19184C5.29762 2.09164 5.3666 2.00132 5.4506 1.91232C5.52641 1.83321 5.79824 1.80222 5.93142 1.78179L6.15203 1.7475C6.45527 1.70004 6.68065 1.5939 6.79949 1.58269C7.01532 1.56225 7.22158 1.54577 7.43603 1.51545C7.45106 1.51347 7.83489 1.47325 7.81987 1.47325C8.01384 1.47325 8.20234 1.47589 8.39221 1.49699L8.56774 1.51611C8.72209 1.53259 9.067 1.63477 9.17491 1.70333L9.42966 1.86551C9.53484 1.9321 9.65573 1.98484 9.77047 2.04219C9.93097 2.12262 10.0628 2.21492 10.2069 2.30985C10.3783 2.42192 10.5177 2.5518 10.5443 2.741C10.5819 2.76342 10.614 2.79506 10.6297 2.83C10.6454 2.86494 10.6836 2.89329 10.7089 2.9223L10.7922 3.01921L10.8796 3.12007L10.9008 3.10557C10.9049 3.10293 10.9192 3.1115 10.9199 3.11612C10.9233 3.14117 10.9834 3.16293 10.9978 3.18139L11.0832 3.29346C11.1091 3.32708 11.1385 3.37916 11.1549 3.4141L11.2389 3.59869L11.3762 3.89074C11.454 4.05688 11.4766 4.23356 11.4998 4.41024L11.525 4.60076C11.5367 4.68647 11.5339 4.76162 11.5278 4.84601L11.5087 5.11103L11.4445 5.40242L11.3181 5.74523C11.2949 5.80918 11.2819 5.86719 11.2525 5.92719L11.0401 6.36164C11.0005 6.44206 10.9431 6.5126 10.8967 6.58974L10.6481 6.99979C10.6187 7.04792 10.5641 7.09802 10.5211 7.14088C10.3121 7.35052 10.1666 7.63664 10.0327 7.74475L9.91936 7.83639L9.69329 8.03153L9.56079 8.14624L9.40097 8.29128C9.31697 8.36775 9.22476 8.4317 9.12641 8.49499C9.01236 8.56882 8.98504 8.48905 8.84024 8.65453C8.78902 8.7132 8.76443 8.61563 8.60188 8.77847C8.55817 8.78242 8.29523 8.909 8.29386 8.90966C8.26791 8.93273 8.23239 8.96108 8.19892 8.97361L7.98447 9.05601L7.67576 9.16215L7.5378 9.20962H7.45721C7.43467 9.25774 7.33632 9.24324 7.18879 9.28741C7.08088 9.31972 6.97844 9.32894 6.86643 9.34806L6.73803 9.37048C6.68544 9.37971 6.6547 9.37509 6.60006 9.37773L6.40336 9.38696C6.36034 9.38894 6.32209 9.37905 6.28179 9.37839H6.15817C6.13359 9.37707 6.08031 9.36784 6.05641 9.36257L5.91298 9.33158C5.84059 9.31576 5.77297 9.31312 5.69443 9.29928L5.46836 9.26038L5.3222 9.24126C5.24981 9.23203 5.18492 9.22017 5.11458 9.19578L4.61122 9.02173C4.51219 8.98745 4.24582 8.83318 4.17752 8.77583L4.00951 8.63541C3.89545 8.53982 3.77047 8.40731 3.67485 8.29523L3.47132 8.05724C3.42624 8.0045 3.38117 7.95967 3.33199 7.90957C3.23842 7.81398 3.1469 7.71113 3.06768 7.60697L2.97343 7.48369C2.91947 7.41249 2.89283 7.32876 2.82317 7.26547C2.774 7.22065 2.74736 7.16263 2.71321 7.10725C2.6736 7.04265 2.65789 6.98529 2.64628 6.90948C2.64013 6.86662 2.59779 6.81718 2.5773 6.77301C2.56227 6.74071 2.56569 6.67346 2.54315 6.64577C2.43045 6.51063 2.37035 6.37416 2.30342 6.22385C2.27883 6.16913 2.25151 6.11771 2.23649 6.05904L2.15726 5.7571L2.06301 5.53493C2.02954 5.45648 2.03774 5.37868 2.03501 5.29694C2.03159 5.20596 2.05823 5.12289 2.07462 5.03653C2.0876 4.97126 2.02886 4.89875 2.06574 4.82821C2.1074 4.74975 2.12994 4.66669 2.15043 4.58099C2.16204 4.53484 2.19619 4.47814 2.19619 4.43529C2.19619 4.37991 2.19551 4.33574 2.22146 4.28696L2.33552 4.07006C2.35328 4.0371 2.36352 3.98897 2.38128 3.95799L2.51036 3.73186C2.54042 3.69165 2.66813 3.67055 2.66267 3.59606L2.71594 3.55321L2.8218 3.37916L2.91332 3.2183C2.98299 3.09568 3.04855 2.9757 3.17764 2.88604C3.20974 2.86362 3.23296 2.82209 3.24457 2.79242C3.34019 2.72254 3.43785 2.65003 3.54577 2.58937L3.54372 2.5874Z" fill="var(--fill-0, white)"/>
</g>
</svg>
